<?xml version="1.0" encoding="UTF-8"?>
<svg width="80px" height="11px" viewBox="0 0 80 11" version="1.1" xmlns="http://www.w3.org/2000/svg" xmlns:xlink="http://www.w3.org/1999/xlink">
    <title>Group 5</title>
    <defs>
        <radialGradient cx="50%" cy="6.95789343%" fx="50%" fy="6.95789343%" r="50%" gradientTransform="translate(0.5, 0.0696), scale(0.1375, 1), rotate(90), scale(1, 7.0667), translate(-0.5, -0.0696)" id="radialGradient-1">
            <stop stop-color="#000000" stop-opacity="0" offset="0%"></stop>
            <stop stop-color="#000000" stop-opacity="0.504916958" offset="100%"></stop>
        </radialGradient>
        <linearGradient x1="50%" y1="0%" x2="50%" y2="100%" id="linearGradient-2">
            <stop stop-color="#A99C7E" offset="0%"></stop>
            <stop stop-color="#655A3C" offset="100%"></stop>
        </linearGradient>
        <linearGradient x1="50%" y1="0%" x2="50%" y2="100%" id="linearGradient-3">
            <stop stop-color="#505954" offset="0%"></stop>
            <stop stop-color="#21090B" offset="99.7650787%"></stop>
        </linearGradient>
    </defs>
    <g id="overlay" stroke="none" stroke-width="1" fill="none" fill-rule="evenodd">
        <g id="Group-5">
            <polygon id="Rectangle" fill="url(#radialGradient-1)" points="0 0 80 0 77 11 3.34108675 11"></polygon>
            <text id="Player" font-family="Sen-Regular, Sen" font-size="3" font-weight="normal" fill="#FFFFFF">
                <tspan x="5" y="8">Player </tspan>
            </text>
            <text id="#1-1600-45W-34L-65%" font-family="Sen-Regular, Sen" font-size="2.5" font-weight="normal">
                <tspan x="5" y="4" fill="#FFFFFF">#1  1600 </tspan>
                <tspan x="15.7910156" y="4" fill="#00C914">45W</tspan>
                <tspan x="20.78125" y="4" fill="#FFFFFF">  </tspan>
                <tspan x="22.2460938" y="4" fill="#A70000">34L</tspan>
                <tspan x="26.484375" y="4" fill="#FFFFFF">  65%</tspan>
            </text>
            <text id="#2-1600-45W-34L-65%" font-family="Sen-Regular, Sen" font-size="2.5" font-weight="normal">
                <tspan x="48.3535156" y="4" fill="#FFFFFF">#2  1600 </tspan>
                <tspan x="59.1445312" y="4" fill="#00C914">45W</tspan>
                <tspan x="64.1347656" y="4" fill="#FFFFFF">  </tspan>
                <tspan x="65.5996094" y="4" fill="#A70000">34L</tspan>
                <tspan x="69.8378906" y="4" fill="#FFFFFF">  65%</tspan>
            </text>
            <text id="Opponent" font-family="Sen-Regular, Sen" font-size="3" font-weight="normal" fill="#FFFFFF">
                <tspan x="61.8027344" y="8">Opponent </tspan>
            </text>
            <path d="M42.1411745,4.00827636 C42.0082136,4.01484233 42.0082136,4.01484233 42.0016476,4.09527549 C41.9967231,4.16585969 42.0016476,4.17735014 42.032836,4.19212358 C42.1181936,4.23151941 42.1214766,4.25450032 42.0853638,4.62876072 C42.0689488,4.81753242 42.0508924,4.98168172 42.0476094,4.99153068 C42.036119,5.01943606 42.2134002,5.70722164 42.2495131,5.77780584 C42.269211,5.81720167 42.3627761,5.91404976 42.4858881,6.0240298 C42.5991511,6.12251938 42.6845087,6.20623552 42.6763012,6.20951851 C42.6500374,6.21936747 42.4399263,6.14385879 42.4054549,6.11102893 C42.3463612,6.05850115 42.1346086,6.01253934 42.1116276,6.04865219 C42.0853638,6.09133101 42.1264011,6.15042476 42.2183247,6.19638656 C42.3151728,6.24563135 42.3151728,6.24563135 42.4875296,6.54930756 C42.6680938,6.86611572 42.6976407,6.95639783 42.6336224,6.97281276 C42.6172075,6.97773724 42.5515478,6.99415217 42.4858881,7.00892561 C42.3627761,7.03847248 42.3627761,7.03683099 42.3414367,7.14681102 C42.3315877,7.19605581 42.3332292,7.20098029 42.3578516,7.19113134 C42.3742665,7.18620686 42.505586,7.18948984 42.6500374,7.1993388 C42.9126762,7.21903672 42.9126762,7.21903672 43.3870677,7.48003411 C43.6956684,7.64910789 43.8795156,7.73939001 43.910704,7.73939001 C43.9533828,7.73939001 43.9714392,7.75744643 44.0830608,7.93144469 C44.1520035,8.03814174 44.2422856,8.16946118 44.2849644,8.22363045 C44.3276432,8.27779972 44.39002,8.36479885 44.4228498,8.41568513 C44.4573212,8.46821291 44.4917925,8.51089173 44.5,8.51089173 C44.5082075,8.51089173 44.5426788,8.46821291 44.5771502,8.41568513 C44.60998,8.36479885 44.6723568,8.27779972 44.7150356,8.22363045 C44.7577144,8.16946118 44.8479965,8.03814174 44.9169392,7.93144469 C45.0285608,7.75744643 45.0466172,7.73939001 45.089296,7.73939001 C45.1204844,7.73939001 45.3043316,7.64910789 45.6129323,7.48003411 C46.0873238,7.21903672 46.0873238,7.21903672 46.3499626,7.1993388 C46.494414,7.18948984 46.6257335,7.18620686 46.6421484,7.19113134 C46.6667708,7.20098029 46.6684123,7.19605581 46.6585633,7.14681102 C46.6372239,7.03683099 46.6372239,7.03847248 46.5141119,7.00892561 C46.4484522,6.99415217 46.3827925,6.97773724 46.3680191,6.97281276 C46.3023593,6.95639783 46.3319062,6.86611572 46.5124704,6.54930756 C46.6848272,6.24563135 46.6848272,6.24563135 46.7816753,6.19638656 C46.8735989,6.15042476 46.9146362,6.09133101 46.8883724,6.04865219 C46.8653914,6.01253934 46.6536388,6.05850115 46.5945451,6.11102893 C46.5600737,6.14385879 46.3499626,6.21936747 46.3236988,6.20951851 C46.3154913,6.20623552 46.4008489,6.12251938 46.5141119,6.0240298 C46.6372239,5.91404976 46.730789,5.81720167 46.7504869,5.77780584 C46.7865998,5.70722164 46.963881,5.01943606 46.9523906,4.99153068 C46.9491076,4.98168172 46.9310512,4.81753242 46.9146362,4.62876072 C46.8785234,4.25450032 46.8818064,4.23151941 46.967164,4.19212358 C46.9983524,4.17735014 47.0032769,4.16585969 46.9983524,4.09691698 C46.9917864,4.01648383 46.9917864,4.01648383 46.8342031,4.00991785 C46.5748472,3.9984274 46.5420173,4.02140831 46.0019661,4.57787444 C45.7590251,4.82738138 45.5538385,5.03092652 45.5439896,5.03092652 C45.5193672,5.03092652 45.315822,5.40026245 45.2994071,5.47248814 C45.2911996,5.51516696 45.3026901,5.58739265 45.3470104,5.7630324 C45.3814818,5.89599334 45.4028212,6.01253934 45.3962552,6.03552025 C45.3864062,6.07327459 45.0482587,6.45081798 45.0219948,6.45081798 C45.0006554,6.45081798 44.5164149,6.98430321 44.5164149,7.0105671 C44.5164149,7.02369905 44.509849,7.03354801 44.5,7.03354801 C44.4917925,7.03354801 44.4835851,7.02369905 44.4835851,7.0105671 C44.4835851,6.97937874 43.9944201,6.44917649 43.9730807,6.45574246 C43.9632318,6.45738395 43.9599488,6.45245947 43.9665148,6.44261052 C43.9730807,6.43276156 43.9714392,6.42783708 43.9632318,6.42947857 C43.9418924,6.43768604 43.6135938,6.07819907 43.6021033,6.03552025 C43.5971788,6.01418084 43.6185182,5.89599334 43.6529896,5.7630324 C43.6973099,5.58739265 43.7088004,5.51516696 43.7005929,5.47248814 C43.6825365,5.39369647 43.4986893,5.06375638 43.4560104,5.03749249 C43.437954,5.02436054 43.2278429,4.81424944 42.9898264,4.56966698 C42.5975096,4.16585969 42.5466233,4.11825639 42.4350018,4.06080414 C42.3660591,4.02633278 42.3036823,3.9984274 42.2938334,4.0000689 C42.2839844,4.00171039 42.2150417,4.00663487 42.1411745,4.00827636 Z M44.257059,5.57097772 C44.1044002,5.57261921 44.1273811,5.55784578 43.9747222,5.76795688 C43.920553,5.84346556 43.8762327,5.92389872 43.8762327,5.94359664 C43.8762327,5.99284143 43.9386094,6.01089785 44.0091936,5.98299247 C44.0978342,5.94523813 44.0797778,5.97970948 43.9845712,6.02731278 C43.8713082,6.08148205 43.8680252,6.10774594 43.9714392,6.12251938 C44.0157596,6.12744386 44.0715703,6.14550028 44.0961927,6.16191521 C44.1388715,6.19146208 44.1388715,6.19146208 44.1060417,6.2341409 C44.0863438,6.2587633 44.0732118,6.29651764 44.0764948,6.31785705 C44.0830608,6.36874333 44.4589627,6.77090912 44.5,6.77090912 C44.5361128,6.77090912 44.9235052,6.36710184 44.9366371,6.31621555 C44.9432031,6.29159316 44.9317127,6.26040479 44.9005243,6.22100896 C44.8168082,6.10938743 44.9087318,6.00925636 45.095862,6.00761487 C45.1927101,6.00761487 45.1927101,6.00761487 45.1812196,5.94195514 C45.1631632,5.82869213 45.1385408,5.79422077 45.0695981,5.78929629 C45.0137873,5.78437181 44.9973724,5.77123987 44.9136562,5.66290133 C44.8200911,5.54143085 44.8200911,5.54143085 44.6559418,5.54307234 C44.5656597,5.54307234 44.4704531,5.54963831 44.4425477,5.55620428 C44.4162839,5.56277026 44.3325677,5.56933623 44.257059,5.57097772 Z M43.9090625,8.16289521 C43.9451754,8.17602715 43.9221945,8.24332836 43.8565347,8.30898809 C43.787592,8.37957229 43.787592,8.37957229 43.7925165,8.51909919 C43.7957995,8.6340037 43.8056485,8.681607 43.8466858,8.77845509 C43.9320434,8.98035873 44.0485894,9.0591504 44.0075521,8.88679363 C43.9911372,8.81456794 43.9911372,8.81456794 44.1240981,8.68981447 C44.2521346,8.57162697 44.2587005,8.5634195 44.2472101,8.50925023 C44.2291537,8.40911916 44.0748533,8.11529191 43.9862127,8.00859486 C43.8959306,7.90025632 43.8680252,7.88384139 43.8516103,7.93472768 C43.8401198,7.97084052 43.8860816,8.15632923 43.9090625,8.16289521 Z M44.7527899,8.50925023 C44.7412995,8.5634195 44.7478654,8.57162697 44.8759019,8.68981447 C45.0088628,8.81456794 45.0088628,8.81456794 44.9924479,8.88679363 C44.9514106,9.0591504 45.0679566,8.98035873 45.1533142,8.77845509 C45.1943515,8.681607 45.2042005,8.6340037 45.2074835,8.51909919 C45.212408,8.37957229 45.212408,8.37957229 45.1434653,8.30898809 C45.0778055,8.24332836 45.0548246,8.17602715 45.0909375,8.16289521 C45.1139184,8.15632923 45.1598802,7.97084052 45.1483897,7.93472768 C45.1319748,7.88384139 45.1040694,7.90025632 45.0137873,8.00859486 C44.9251467,8.11529191 44.7708463,8.40911916 44.7527899,8.50925023 Z" id="Vanguard-Copy" fill="url(#linearGradient-2)" fill-rule="nonzero"></path>
            <path d="M36.8194417,4 C36.8566582,4 36.9931187,4.16538797 37.0520448,4.28285979 C37.3234151,4.82693984 37.607191,5.19635782 37.5901334,4.98459939 C37.5854814,4.92277212 37.587032,4.91968075 37.6242485,4.9243178 C37.6630157,4.93050053 38.1995537,5.22263441 38.252277,5.26745919 C38.2693346,5.28137033 38.3546224,5.33701487 38.4430116,5.38956806 C38.6554558,5.51940534 38.8399877,5.71879831 38.9252755,5.90891719 C38.9702454,6.00784084 39.0090126,6.20723381 38.9981578,6.27678949 C38.987303,6.3447995 38.9004645,6.53491838 38.8803055,6.53491838 C38.8725521,6.53491838 38.8306835,6.56583201 38.7841629,6.60601974 C38.6368476,6.73121998 38.2956963,6.95070682 38.2073071,6.97543773 C38.1576851,6.98934886 38.0817014,6.99862296 38.024326,6.99553159 C37.9266326,6.99089455 37.9266326,6.99089455 38.0072684,6.93370432 C38.1499317,6.83168931 38.272436,6.52718997 38.2367702,6.36489336 C38.222814,6.3015204 38.0910055,6.20414244 37.9390381,6.14231516 C37.8413448,6.10367312 37.8258379,6.09285334 37.8165338,6.04957425 C37.7653611,5.81308491 37.7250432,5.788354 37.4350647,5.81463059 C37.3280672,5.82390468 37.2334753,5.83627014 37.2272725,5.84245287 C37.2210698,5.8486356 37.2520835,5.91200856 37.2970535,5.98465561 C37.3404727,6.05575698 37.3761385,6.12685834 37.3761385,6.14076948 C37.3761385,6.1562263 37.3296179,6.21496221 37.2722424,6.27060676 C37.1667957,6.37262177 37.1667957,6.37262177 37.239678,6.37725882 C37.309459,6.38189586 37.3156617,6.38498723 37.3528782,6.4560886 C37.3916454,6.52564428 37.3993988,6.53028133 37.5234538,6.57201474 C37.6226979,6.60447406 37.661465,6.62456793 37.6862761,6.65857293 C37.7048843,6.68330384 37.7576077,6.72658294 37.8025776,6.75440521 C37.9452409,6.83941772 37.9343861,6.84250908 37.5854814,6.82705226 C37.2660397,6.81468681 37.2489821,6.81777817 37.2210698,6.92288454 C37.1993601,7.00171432 37.2164177,7.02489955 37.3296179,7.06817864 C37.3745878,7.08518114 37.4180071,7.11300342 37.4257605,7.13000592 C37.4350647,7.14700842 37.4691798,7.19801593 37.5032949,7.2428407 C37.53741,7.28921116 37.5606704,7.32939889 37.557569,7.33403594 C37.5467142,7.34331003 37.2551849,7.31239639 37.1140723,7.2861198 C37.0039735,7.26448025 37.0039735,7.26448025 37.0039735,7.43295958 C37.0039735,7.59525618 37.0055242,7.60143891 37.0489434,7.65090073 C37.0923627,7.70190824 37.0923627,7.70190824 37.0861599,8.08060031 C37.0830586,8.28926737 37.0768558,8.47474921 37.0737544,8.49329739 C37.0691024,8.51339125 37.0101762,8.56285308 36.9109322,8.6293174 C36.7264004,8.75142627 36.6163016,8.84725855 36.5511727,8.94309083 C36.5015507,9.0141922 36.5015507,9.0141922 36.4705369,8.96782174 C36.4038574,8.87508083 36.2472379,8.73287809 36.0921691,8.63086308 C35.9898238,8.56285308 35.9308976,8.51493694 35.9262456,8.49329739 C35.9231442,8.47474921 35.9169414,8.28926737 35.9138401,8.08060031 C35.9076373,7.70190824 35.9076373,7.70190824 35.9510566,7.65090073 C35.9944758,7.60143891 35.9960265,7.59525618 35.9960265,7.43295958 C35.9960265,7.26448025 35.9960265,7.26448025 35.8859277,7.2861198 C35.7448151,7.31239639 35.4532858,7.34331003 35.442431,7.33403594 C35.4393296,7.32939889 35.46259,7.28921116 35.4967051,7.2428407 C35.5308202,7.19801593 35.5649353,7.14700842 35.5742395,7.13000592 C35.5819929,7.11300342 35.6254122,7.08518114 35.6703821,7.06817864 C35.7835823,7.02489955 35.8006399,7.00171432 35.7789302,6.92288454 C35.7510179,6.81777817 35.7339603,6.81468681 35.4145186,6.82705226 C35.0656139,6.84250908 35.0547591,6.83941772 35.1974224,6.75440521 C35.2423923,6.72658294 35.2951157,6.68330384 35.3137239,6.65857293 C35.338535,6.62456793 35.3773021,6.60447406 35.4765462,6.57201474 C35.6006012,6.53028133 35.6083546,6.52564428 35.6471218,6.4560886 C35.6843383,6.38498723 35.690541,6.38189586 35.760322,6.37725882 C35.8332043,6.37262177 35.8332043,6.37262177 35.7293082,6.27060676 C35.6703821,6.21496221 35.6238615,6.1562263 35.6238615,6.14076948 C35.6238615,6.12685834 35.6595273,6.05575698 35.7029465,5.98465561 C35.7479165,5.91200856 35.7789302,5.8486356 35.7727275,5.84245287 C35.7665247,5.83627014 35.6719328,5.82390468 35.5649353,5.81463059 C35.2749568,5.788354 35.2346389,5.81308491 35.1834662,6.04957425 C35.1741621,6.09285334 35.1586552,6.10367312 35.0609619,6.14231516 C34.9089945,6.20414244 34.777186,6.3015204 34.7632298,6.36489336 C34.727564,6.52718997 34.8500683,6.83168931 34.9927316,6.93370432 C35.0733674,6.99089455 35.0733674,6.99089455 34.975674,6.99553159 C34.9182986,6.99862296 34.8423149,6.98934886 34.7926929,6.97543773 C34.7043037,6.95070682 34.3631524,6.73121998 34.2158371,6.60601974 C34.1693165,6.56583201 34.1274479,6.53491838 34.1196945,6.53491838 C34.0995355,6.53491838 34.012697,6.3447995 34.0018422,6.27678949 C33.9909874,6.20723381 34.0297546,6.00784084 34.0747245,5.90891719 C34.1600123,5.71879831 34.3445442,5.51940534 34.5569884,5.38956806 C34.6453776,5.33701487 34.7306654,5.28137033 34.747723,5.26745919 C34.8004463,5.22263441 35.3369843,4.93050053 35.3757515,4.9243178 C35.412968,4.91968075 35.4145186,4.92277212 35.4098666,4.98459939 C35.4021131,5.07579463 35.4269241,5.07115758 35.5339216,4.96141416 C35.6192094,4.87485598 35.8021906,4.573448 35.9479552,4.28285979 C35.9851717,4.21021274 36.0440978,4.12365455 36.0875171,4.07882978 C36.1929638,3.97063204 36.1991666,3.97526909 36.1898625,4.13447433 C36.127835,5.15307872 36.127835,5.14535031 36.2456872,5.44675829 C36.351134,5.72188968 36.3542354,5.73116377 36.330975,5.77598854 C36.3170189,5.80071946 36.2984106,5.82699605 36.2891065,5.83317878 L36.2567072,5.86954524 C36.2097199,5.9511229 36.1991666,6.1260855 36.2456872,6.22269062 C36.3464819,6.42672064 36.6535181,6.42672064 36.7543128,6.22269062 C36.8101375,6.10676448 36.7837758,5.87800355 36.7108935,5.83317878 L36.6990049,5.82109956 C36.6897008,5.80965006 36.6783291,5.79247582 36.669025,5.77598854 C36.6457646,5.73116377 36.648866,5.72188968 36.7543128,5.44675829 C36.872165,5.14535031 36.872165,5.15307872 36.8101375,4.13447433 C36.8054855,4.04637046 36.8085868,4 36.8194417,4 Z M36.3843879,4 C36.395237,4 36.4530987,4.21301813 36.5941365,4.76966406 C36.6538064,5.0028956 36.6538064,5.0028956 36.5941365,5.18948082 C36.5597811,5.2921027 36.5272339,5.40094408 36.5200012,5.43048674 C36.5145767,5.4600294 36.5037276,5.49734645 36.4983031,5.51445009 C36.4910704,5.53466349 36.4964949,5.53932812 36.5109603,5.53155374 C36.5326585,5.5206696 36.5236176,5.64195 36.5037276,5.65905364 C36.4946867,5.66682803 36.3663061,5.66993778 36.3572652,5.6621634 C36.3536489,5.65749877 36.3192935,5.49112694 36.2795136,5.29054782 C36.2108029,4.92515175 36.2108029,4.92515175 36.2433501,4.78521283 C36.2614318,4.70746899 36.2975954,4.50067036 36.3247181,4.32185952 C36.3518407,4.14460355 36.3789634,4 36.3843879,4 Z" id="Combined-Shape-Copy" fill="url(#linearGradient-3)" fill-rule="nonzero"></path>
        </g>
    </g>
</svg>