<?xml version="1.0" encoding="UTF-8"?>
<svg width="44px" height="25px" viewBox="0 0 44 25" version="1.1" xmlns="http://www.w3.org/2000/svg" xmlns:xlink="http://www.w3.org/1999/xlink">
    <title>Group 8</title>
    <defs>
        <linearGradient x1="50%" y1="0%" x2="50%" y2="100%" id="linearGradient-1">
            <stop stop-color="#A99C7E" offset="0%"></stop>
            <stop stop-color="#655A3C" offset="100%"></stop>
        </linearGradient>
        <linearGradient x1="50%" y1="0%" x2="50%" y2="99.7650787%" id="linearGradient-2">
            <stop stop-color="#505954" offset="0%"></stop>
            <stop stop-color="#21090B" offset="100%"></stop>
        </linearGradient>
    </defs>
    <g id="overlay" stroke="none" stroke-width="1" fill="none" fill-rule="evenodd">
        <g id="Group-8">
            <rect id="Rectangle" fill-opacity="0.404092002" fill="#000000" x="0" y="0" width="44" height="25"></rect>
            <text id="Player" font-family="Sen-Regular, Sen" font-size="3" font-weight="normal" fill="#FFFFFF">
                <tspan x="11" y="6">Player </tspan>
            </text>
            <text id="#1-1600-45W-34L-65%" font-family="Sen-Regular, Sen" font-size="2.5" font-weight="normal">
                <tspan x="11" y="10" fill="#FFFFFF">#1  1600 </tspan>
                <tspan x="21.7910156" y="10" fill="#00C914">45W</tspan>
                <tspan x="26.78125" y="10" fill="#FFFFFF">  </tspan>
                <tspan x="28.2460938" y="10" fill="#A70000">34L</tspan>
                <tspan x="32.484375" y="10" fill="#FFFFFF">  65%</tspan>
            </text>
            <text id="#2-1600-45W-34L-65%" font-family="Sen-Regular, Sen" font-size="2.5" font-weight="normal">
                <tspan x="11.3535156" y="20" fill="#FFFFFF">#2  1600 </tspan>
                <tspan x="22.1445312" y="20" fill="#00C914">45W</tspan>
                <tspan x="27.1347656" y="20" fill="#FFFFFF">  </tspan>
                <tspan x="28.5996094" y="20" fill="#A70000">34L</tspan>
                <tspan x="32.8378906" y="20" fill="#FFFFFF">  65%</tspan>
            </text>
            <text id="Opponent" font-family="Sen-Regular, Sen" font-size="3" font-weight="normal" fill="#FFFFFF">
                <tspan x="11" y="16">Opponent </tspan>
            </text>
            <path d="M2.14117452,15.0082764 C2.00821359,15.0148423 2.00821359,15.0148423 2.00164762,15.0952755 C1.99672314,15.1658597 2.00164762,15.1773501 2.03283598,15.1921236 C2.11819362,15.2315194 2.12147661,15.2545003 2.08536376,15.6287607 C2.06894883,15.8175324 2.05089241,15.9816817 2.04760942,15.9915307 C2.03611897,16.0194361 2.21340022,16.7072216 2.24951306,16.7778058 C2.26921098,16.8172017 2.36277608,16.9140498 2.48588806,17.0240298 C2.59915108,17.1225194 2.68450872,17.2062355 2.67630125,17.2095185 C2.65003736,17.2193675 2.43992625,17.1438588 2.4054549,17.1110289 C2.34636115,17.0585011 2.13460855,17.0125393 2.11162765,17.0486522 C2.08536376,17.091331 2.12640109,17.1504248 2.2183247,17.1963866 C2.31517278,17.2456314 2.31517278,17.2456314 2.48752955,17.5493076 C2.66809378,17.8661157 2.69764066,17.9563978 2.63362243,17.9728128 C2.6172075,17.9777372 2.55154778,17.9941522 2.48588806,18.0089256 C2.36277608,18.0384725 2.36277608,18.036831 2.34143667,18.146811 C2.33158771,18.1960558 2.33322921,18.2009803 2.3578516,18.1911313 C2.37426653,18.1862069 2.50558598,18.1894898 2.65003736,18.1993388 C2.91267625,18.2190367 2.91267625,18.2190367 3.38706773,18.4800341 C3.69566842,18.6491079 3.87951564,18.73939 3.910704,18.73939 C3.95338282,18.73939 3.97143925,18.7574464 4.08306077,18.9314447 C4.15200348,19.0381417 4.2422856,19.1694612 4.28496441,19.2236304 C4.32764323,19.2777997 4.39001997,19.3647988 4.42284983,19.4156851 C4.45732118,19.4682129 4.49179253,19.5108917 4.5,19.5108917 C4.50820747,19.5108917 4.54267882,19.4682129 4.57715017,19.4156851 C4.60998003,19.3647988 4.67235677,19.2777997 4.71503559,19.2236304 C4.7577144,19.1694612 4.84799652,19.0381417 4.91693923,18.9314447 C5.02856075,18.7574464 5.04661718,18.73939 5.089296,18.73939 C5.12048436,18.73939 5.30433158,18.6491079 5.61293227,18.4800341 C6.08732375,18.2190367 6.08732375,18.2190367 6.34996264,18.1993388 C6.49441402,18.1894898 6.62573347,18.1862069 6.6421484,18.1911313 C6.66677079,18.2009803 6.66841229,18.1960558 6.65856333,18.146811 C6.63722392,18.036831 6.63722392,18.0384725 6.51411194,18.0089256 C6.44845222,17.9941522 6.3827925,17.9777372 6.36801906,17.9728128 C6.30235934,17.9563978 6.33190622,17.8661157 6.51247045,17.5493076 C6.68482722,17.2456314 6.68482722,17.2456314 6.7816753,17.1963866 C6.87359891,17.1504248 6.91463624,17.091331 6.88837235,17.0486522 C6.86539145,17.0125393 6.65363885,17.0585011 6.5945451,17.1110289 C6.56007375,17.1438588 6.34996264,17.2193675 6.32369875,17.2095185 C6.31549128,17.2062355 6.40084892,17.1225194 6.51411194,17.0240298 C6.63722392,16.9140498 6.73078902,16.8172017 6.75048694,16.7778058 C6.78659978,16.7072216 6.96388103,16.0194361 6.95239058,15.9915307 C6.94910759,15.9816817 6.93105117,15.8175324 6.91463624,15.6287607 C6.87852339,15.2545003 6.88180638,15.2315194 6.96716402,15.1921236 C6.99835238,15.1773501 7.00327686,15.1658597 6.99835238,15.096917 C6.99178641,15.0164838 6.99178641,15.0164838 6.83420308,15.0099179 C6.57484718,14.9984274 6.54201732,15.0214083 6.00196612,15.5778744 C5.75902515,15.8273814 5.55383852,16.0309265 5.54398956,16.0309265 C5.51936717,16.0309265 5.31582203,16.4002624 5.2994071,16.4724881 C5.29119964,16.515167 5.30269009,16.5873927 5.3470104,16.7630324 C5.38148175,16.8959933 5.40282116,17.0125393 5.39625519,17.0355202 C5.38640623,17.0732746 5.04825867,17.450818 5.02199478,17.450818 C5.00065537,17.450818 4.51641493,17.9843032 4.51641493,18.0105671 C4.51641493,18.023699 4.50984896,18.033548 4.5,18.033548 C4.49179253,18.033548 4.48358507,18.023699 4.48358507,18.0105671 C4.48358507,17.9793787 3.99442015,17.4491765 3.97308074,17.4557425 C3.96323178,17.457384 3.95994879,17.4524595 3.96651477,17.4426105 C3.97308074,17.4327616 3.97143925,17.4278371 3.96323178,17.4294786 C3.94189237,17.437686 3.61359377,17.0781991 3.60210332,17.0355202 C3.59717884,17.0141808 3.61851825,16.8959933 3.6529896,16.7630324 C3.69730991,16.5873927 3.70880036,16.515167 3.7005929,16.4724881 C3.68253647,16.3936965 3.49868926,16.0637564 3.45601044,16.0374925 C3.43795401,16.0243605 3.22784291,15.8142494 2.98982642,15.569667 C2.59750958,15.1658597 2.5466233,15.1182564 2.43500178,15.0608041 C2.36605907,15.0263328 2.30368233,14.9984274 2.29383338,15.0000689 C2.28398442,15.0017104 2.21504171,15.0066349 2.14117452,15.0082764 Z M4.25705903,16.5709777 C4.10440018,16.5726192 4.12738108,16.5578458 3.97472223,16.7679569 C3.92055296,16.8434656 3.87623265,16.9238987 3.87623265,16.9435966 C3.87623265,16.9928414 3.93860939,17.0108979 4.00919359,16.9829925 C4.09783421,16.9452381 4.07977779,16.9797095 3.98457119,17.0273128 C3.87130817,17.0814821 3.86802519,17.1077459 3.97143925,17.1225194 C4.01575956,17.1274439 4.07157032,17.1455003 4.09619272,17.1619152 C4.13887153,17.1914621 4.13887153,17.1914621 4.10604167,17.2341409 C4.08634376,17.2587633 4.07321181,17.2965176 4.0764948,17.317857 C4.08306077,17.3687433 4.45896267,17.7709091 4.5,17.7709091 C4.53611285,17.7709091 4.9235052,17.3671018 4.93663714,17.3162156 C4.94320312,17.2915932 4.93171267,17.2604048 4.9005243,17.221009 C4.81680815,17.1093874 4.90873176,17.0092564 5.09586197,17.0076149 C5.19271006,17.0076149 5.19271006,17.0076149 5.18121961,16.9419551 C5.16316318,16.8286921 5.13854079,16.7942208 5.06959808,16.7892963 C5.01378732,16.7843718 4.99737239,16.7712399 4.91365624,16.6629013 C4.82009114,16.5414308 4.82009114,16.5414308 4.65594184,16.5430723 C4.56565972,16.5430723 4.47045313,16.5496383 4.44254774,16.5562043 C4.41628386,16.5627703 4.33256771,16.5693362 4.25705903,16.5709777 Z M3.90906251,19.1628952 C3.94517536,19.1760272 3.92219446,19.2433284 3.85653473,19.3089881 C3.78759203,19.3795723 3.78759203,19.3795723 3.79251651,19.5190992 C3.79579949,19.6340037 3.80564845,19.681607 3.84668578,19.7784551 C3.93204341,19.9803587 4.04858942,20.0591504 4.00755209,19.8867936 C3.99113716,19.8145679 3.99113716,19.8145679 4.1240981,19.6898145 C4.25213455,19.571627 4.25870053,19.5634195 4.24721007,19.5092502 C4.22915365,19.4091192 4.07485331,19.1152919 3.98621268,19.0085949 C3.89593057,18.9002563 3.86802519,18.8838414 3.85161026,18.9347277 C3.8401198,18.9708405 3.88608161,19.1563292 3.90906251,19.1628952 Z M4.75278993,19.5092502 C4.74129947,19.5634195 4.74786545,19.571627 4.8759019,19.6898145 C5.00886284,19.8145679 5.00886284,19.8145679 4.99244791,19.8867936 C4.95141058,20.0591504 5.06795659,19.9803587 5.15331422,19.7784551 C5.19435155,19.681607 5.20420051,19.6340037 5.20748349,19.5190992 C5.21240797,19.3795723 5.21240797,19.3795723 5.14346527,19.3089881 C5.07780554,19.2433284 5.05482464,19.1760272 5.09093749,19.1628952 C5.11391839,19.1563292 5.1598802,18.9708405 5.14838974,18.9347277 C5.13197481,18.8838414 5.10406943,18.9002563 5.01378732,19.0085949 C4.92514669,19.1152919 4.77084635,19.4091192 4.75278993,19.5092502 Z" id="Vanguard-Copy" fill="url(#linearGradient-1)" fill-rule="nonzero"></path>
            <path d="M4.81944166,5 C4.85665816,5 4.99311867,5.16538797 5.0520448,5.28285979 C5.32341514,5.82693984 5.60719098,6.19635782 5.59013342,5.98459939 C5.58548135,5.92277212 5.58703204,5.91968075 5.62424855,5.9243178 C5.66301574,5.93050053 6.19955366,6.22263441 6.25227704,6.26745919 C6.26933461,6.28137033 6.35462243,6.33701487 6.44301162,6.38956806 C6.65545583,6.51940534 6.83998766,6.71879831 6.92527548,6.90891719 C6.97024543,7.00784084 7.00901262,7.20723381 6.9981578,7.27678949 C6.98730299,7.3447995 6.90046448,7.53491838 6.88030554,7.53491838 C6.8725521,7.53491838 6.83068354,7.56583201 6.78416291,7.60601974 C6.63684758,7.73121998 6.2956963,7.95070682 6.2073071,7.97543773 C6.1576851,7.98934886 6.0817014,7.99862296 6.02432596,7.99553159 C5.92663264,7.99089455 5.92663264,7.99089455 6.00726839,7.93370432 C6.14993166,7.83168931 6.27243598,7.52718997 6.23677017,7.36489336 C6.22281398,7.3015204 6.09100553,7.20414244 5.93903814,7.14231516 C5.84134482,7.10367312 5.82583794,7.09285334 5.81653381,7.04957425 C5.76536112,6.81308491 5.72504324,6.788354 5.43506465,6.81463059 C5.3280672,6.82390468 5.23347526,6.83627014 5.22727251,6.84245287 C5.22106976,6.8486356 5.25208351,6.91200856 5.29705345,6.98465561 C5.34047271,7.05575698 5.37613852,7.12685834 5.37613852,7.14076948 C5.37613852,7.1562263 5.32961789,7.21496221 5.27224245,7.27060676 C5.16679569,7.37262177 5.16679569,7.37262177 5.23967801,7.37725882 C5.30945895,7.38189586 5.3156617,7.38498723 5.35287821,7.4560886 C5.3916454,7.52564428 5.39939884,7.53028133 5.52345385,7.57201474 C5.62269786,7.60447406 5.66146505,7.62456793 5.68627605,7.65857293 C5.7048843,7.68330384 5.75760768,7.72658294 5.80257763,7.75440521 C5.94524089,7.83941772 5.93438608,7.84250908 5.58548135,7.82705226 C5.2660397,7.81468681 5.24898213,7.81777817 5.22106976,7.92288454 C5.19936013,8.00171432 5.21641769,8.02489955 5.32961789,8.06817864 C5.37458783,8.08518114 5.41800709,8.11300342 5.42576053,8.13000592 C5.43506465,8.14700842 5.46917978,8.19801593 5.50329491,8.2428407 C5.53741004,8.28921116 5.56067035,8.32939889 5.55756898,8.33403594 C5.54671416,8.34331003 5.25518489,8.31239639 5.11407231,8.2861198 C5.00397349,8.26448025 5.00397349,8.26448025 5.00397349,8.43295958 C5.00397349,8.59525618 5.00552417,8.60143891 5.04894343,8.65090073 C5.09236268,8.70190824 5.09236268,8.70190824 5.08615993,9.08060031 C5.08305856,9.28926737 5.07685581,9.47474921 5.07375443,9.49329739 C5.06910237,9.51339125 5.01017624,9.56285308 4.91093223,9.6293174 C4.7264004,9.75142627 4.61630157,9.84725855 4.55117269,9.94309083 C4.50155069,10.0141922 4.50155069,10.0141922 4.47053693,9.96782174 C4.40385737,9.87508083 4.24723791,9.73287809 4.09216915,9.63086308 C3.98982376,9.56285308 3.93089763,9.51493694 3.92624557,9.49329739 C3.92314419,9.47474921 3.91694144,9.28926737 3.91384007,9.08060031 C3.90763732,8.70190824 3.90763732,8.70190824 3.95105657,8.65090073 C3.99447583,8.60143891 3.99602651,8.59525618 3.99602651,8.43295958 C3.99602651,8.26448025 3.99602651,8.26448025 3.88592769,8.2861198 C3.74481511,8.31239639 3.45328584,8.34331003 3.44243102,8.33403594 C3.43932965,8.32939889 3.46258996,8.28921116 3.49670509,8.2428407 C3.53082022,8.19801593 3.56493535,8.14700842 3.57423947,8.13000592 C3.58199291,8.11300342 3.62541217,8.08518114 3.67038211,8.06817864 C3.78358231,8.02489955 3.80063987,8.00171432 3.77893024,7.92288454 C3.75101787,7.81777817 3.7339603,7.81468681 3.41451865,7.82705226 C3.06561392,7.84250908 3.05475911,7.83941772 3.19742237,7.75440521 C3.24239232,7.72658294 3.2951157,7.68330384 3.31372395,7.65857293 C3.33853495,7.62456793 3.37730214,7.60447406 3.47654615,7.57201474 C3.60060116,7.53028133 3.6083546,7.52564428 3.64712179,7.4560886 C3.6843383,7.38498723 3.69054105,7.38189586 3.76032199,7.37725882 C3.83320431,7.37262177 3.83320431,7.37262177 3.72930824,7.27060676 C3.67038211,7.21496221 3.62386148,7.1562263 3.62386148,7.14076948 C3.62386148,7.12685834 3.65952729,7.05575698 3.70294655,6.98465561 C3.74791649,6.91200856 3.77893024,6.8486356 3.77272749,6.84245287 C3.76652474,6.83627014 3.6719328,6.82390468 3.56493535,6.81463059 C3.27495676,6.788354 3.23463888,6.81308491 3.18346619,7.04957425 C3.17416206,7.09285334 3.15865518,7.10367312 3.06096186,7.14231516 C2.90899447,7.20414244 2.77718602,7.3015204 2.76322983,7.36489336 C2.72756402,7.52718997 2.85006834,7.83168931 2.99273161,7.93370432 C3.07336736,7.99089455 3.07336736,7.99089455 2.97567404,7.99553159 C2.9182986,7.99862296 2.8423149,7.98934886 2.7926929,7.97543773 C2.7043037,7.95070682 2.36315242,7.73121998 2.21583709,7.60601974 C2.16931646,7.56583201 2.1274479,7.53491838 2.11969446,7.53491838 C2.09953552,7.53491838 2.01269701,7.3447995 2.0018422,7.27678949 C1.99098738,7.20723381 2.02975457,7.00784084 2.07472452,6.90891719 C2.16001234,6.71879831 2.34454417,6.51940534 2.55698838,6.38956806 C2.64537757,6.33701487 2.73066539,6.28137033 2.74772296,6.26745919 C2.80044634,6.22263441 3.33698426,5.93050053 3.37575145,5.9243178 C3.41296796,5.91968075 3.41451865,5.92277212 3.40986658,5.98459939 C3.40211314,6.07579463 3.42692415,6.07115758 3.53392159,5.96141416 C3.61920942,5.87485598 3.80219056,5.573448 3.9479552,5.28285979 C3.9851717,5.21021274 4.04409783,5.12365455 4.08751709,5.07882978 C4.19296385,4.97063204 4.1991666,4.97526909 4.18986247,5.13447433 C4.12783496,6.15307872 4.12783496,6.14535031 4.24568723,6.44675829 C4.35113399,6.72188968 4.35423536,6.73116377 4.33097505,6.77598854 C4.31701886,6.80071946 4.29841061,6.82699605 4.28910648,6.83317878 L4.25670716,6.86954524 C4.20971989,6.9511229 4.1991666,7.1260855 4.24568723,7.22269062 C4.34648192,7.42672064 4.65351808,7.42672064 4.75431277,7.22269062 C4.81013753,7.10676448 4.78377584,6.87800355 4.71089352,6.83317878 L4.69900491,6.82109956 C4.68970079,6.80965006 4.67832908,6.79247582 4.66902495,6.77598854 C4.64576464,6.73116377 4.64886601,6.72188968 4.75431277,6.44675829 C4.87216504,6.14535031 4.87216504,6.15307872 4.81013753,5.13447433 C4.80548547,5.04637046 4.80858684,5 4.81944166,5 Z M4.38438791,5 C4.39523697,5 4.45309865,5.21301813 4.5941365,5.76966406 C4.65380635,6.0028956 4.65380635,6.0028956 4.5941365,6.18948082 C4.55978112,6.2921027 4.52723393,6.40094408 4.52000122,6.43048674 C4.51457669,6.4600294 4.50372762,6.49734645 4.49830309,6.51445009 C4.49107038,6.53466349 4.49649491,6.53932812 4.51096033,6.53155374 C4.53265846,6.5206696 4.52361757,6.64195 4.50372762,6.65905364 C4.49468673,6.66682803 4.36630613,6.66993778 4.35726525,6.6621634 C4.35364889,6.65749877 4.31929352,6.49112694 4.27951361,6.29054782 C4.21080287,5.92515175 4.21080287,5.92515175 4.24335006,5.78521283 C4.26143184,5.70746899 4.29759539,5.50067036 4.32471805,5.32185952 C4.35184071,5.14460355 4.37896338,5 4.38438791,5 Z" id="Combined-Shape-Copy" fill="url(#linearGradient-2)" fill-rule="nonzero"></path>
        </g>
    </g>
</svg>