<?xml version="1.0" encoding="UTF-8"?>
<svg width="206px" height="12px" viewBox="0 0 206 12" version="1.1" xmlns="http://www.w3.org/2000/svg" xmlns:xlink="http://www.w3.org/1999/xlink">
    <title>Group 6</title>
    <defs>
        <linearGradient x1="101.6665%" y1="49.3379029%" x2="50%" y2="50.3705387%" id="linearGradient-1">
            <stop stop-color="#000000" stop-opacity="0" offset="0%"></stop>
            <stop stop-color="#000000" stop-opacity="0.504916958" offset="100%"></stop>
        </linearGradient>
        <linearGradient x1="50%" y1="0%" x2="50%" y2="100%" id="linearGradient-2">
            <stop stop-color="#505954" offset="0%"></stop>
            <stop stop-color="#21090B" offset="99.7650787%"></stop>
        </linearGradient>
        <linearGradient x1="50%" y1="0%" x2="50%" y2="100%" id="linearGradient-3">
            <stop stop-color="#A99C7E" offset="0%"></stop>
            <stop stop-color="#655A3C" offset="100%"></stop>
        </linearGradient>
    </defs>
    <g id="overlay" stroke="none" stroke-width="1" fill="none" fill-rule="evenodd">
        <g id="Group-6">
            <polygon id="Rectangle" fill="url(#linearGradient-1)" points="6.4498671e-15 -2.33146835e-15 49 -1.65423231e-14 52 12 3.32728342 12"></polygon>
            <text id="Player" font-family="Sen-Regular, Sen" font-size="3" font-weight="normal" fill="#FFFFFF">
                <tspan x="5" y="9">Player </tspan>
            </text>
            <text id="#1-1600-45W-34L-65%" font-family="Sen-Regular, Sen" font-size="2.5" font-weight="normal">
                <tspan x="5" y="4" fill="#FFFFFF">#1  1600 </tspan>
                <tspan x="15.7910156" y="4" fill="#00C914">45W</tspan>
                <tspan x="20.78125" y="4" fill="#FFFFFF">  </tspan>
                <tspan x="22.2460938" y="4" fill="#A70000">34L</tspan>
                <tspan x="26.484375" y="4" fill="#FFFFFF">  65%</tspan>
            </text>
            <path d="M40.8194417,4 C40.8566582,4 40.9931187,4.16538797 41.0520448,4.28285979 C41.3234151,4.82693984 41.607191,5.19635782 41.5901334,4.98459939 C41.5854814,4.92277212 41.587032,4.91968075 41.6242485,4.9243178 C41.6630157,4.93050053 42.1995537,5.22263441 42.252277,5.26745919 C42.2693346,5.28137033 42.3546224,5.33701487 42.4430116,5.38956806 C42.6554558,5.51940534 42.8399877,5.71879831 42.9252755,5.90891719 C42.9702454,6.00784084 43.0090126,6.20723381 42.9981578,6.27678949 C42.987303,6.3447995 42.9004645,6.53491838 42.8803055,6.53491838 C42.8725521,6.53491838 42.8306835,6.56583201 42.7841629,6.60601974 C42.6368476,6.73121998 42.2956963,6.95070682 42.2073071,6.97543773 C42.1576851,6.98934886 42.0817014,6.99862296 42.024326,6.99553159 C41.9266326,6.99089455 41.9266326,6.99089455 42.0072684,6.93370432 C42.1499317,6.83168931 42.272436,6.52718997 42.2367702,6.36489336 C42.222814,6.3015204 42.0910055,6.20414244 41.9390381,6.14231516 C41.8413448,6.10367312 41.8258379,6.09285334 41.8165338,6.04957425 C41.7653611,5.81308491 41.7250432,5.788354 41.4350647,5.81463059 C41.3280672,5.82390468 41.2334753,5.83627014 41.2272725,5.84245287 C41.2210698,5.8486356 41.2520835,5.91200856 41.2970535,5.98465561 C41.3404727,6.05575698 41.3761385,6.12685834 41.3761385,6.14076948 C41.3761385,6.1562263 41.3296179,6.21496221 41.2722424,6.27060676 C41.1667957,6.37262177 41.1667957,6.37262177 41.239678,6.37725882 C41.309459,6.38189586 41.3156617,6.38498723 41.3528782,6.4560886 C41.3916454,6.52564428 41.3993988,6.53028133 41.5234538,6.57201474 C41.6226979,6.60447406 41.661465,6.62456793 41.6862761,6.65857293 C41.7048843,6.68330384 41.7576077,6.72658294 41.8025776,6.75440521 C41.9452409,6.83941772 41.9343861,6.84250908 41.5854814,6.82705226 C41.2660397,6.81468681 41.2489821,6.81777817 41.2210698,6.92288454 C41.1993601,7.00171432 41.2164177,7.02489955 41.3296179,7.06817864 C41.3745878,7.08518114 41.4180071,7.11300342 41.4257605,7.13000592 C41.4350647,7.14700842 41.4691798,7.19801593 41.5032949,7.2428407 C41.53741,7.28921116 41.5606704,7.32939889 41.557569,7.33403594 C41.5467142,7.34331003 41.2551849,7.31239639 41.1140723,7.2861198 C41.0039735,7.26448025 41.0039735,7.26448025 41.0039735,7.43295958 C41.0039735,7.59525618 41.0055242,7.60143891 41.0489434,7.65090073 C41.0923627,7.70190824 41.0923627,7.70190824 41.0861599,8.08060031 C41.0830586,8.28926737 41.0768558,8.47474921 41.0737544,8.49329739 C41.0691024,8.51339125 41.0101762,8.56285308 40.9109322,8.6293174 C40.7264004,8.75142627 40.6163016,8.84725855 40.5511727,8.94309083 C40.5015507,9.0141922 40.5015507,9.0141922 40.4705369,8.96782174 C40.4038574,8.87508083 40.2472379,8.73287809 40.0921691,8.63086308 C39.9898238,8.56285308 39.9308976,8.51493694 39.9262456,8.49329739 C39.9231442,8.47474921 39.9169414,8.28926737 39.9138401,8.08060031 C39.9076373,7.70190824 39.9076373,7.70190824 39.9510566,7.65090073 C39.9944758,7.60143891 39.9960265,7.59525618 39.9960265,7.43295958 C39.9960265,7.26448025 39.9960265,7.26448025 39.8859277,7.2861198 C39.7448151,7.31239639 39.4532858,7.34331003 39.442431,7.33403594 C39.4393296,7.32939889 39.46259,7.28921116 39.4967051,7.2428407 C39.5308202,7.19801593 39.5649353,7.14700842 39.5742395,7.13000592 C39.5819929,7.11300342 39.6254122,7.08518114 39.6703821,7.06817864 C39.7835823,7.02489955 39.8006399,7.00171432 39.7789302,6.92288454 C39.7510179,6.81777817 39.7339603,6.81468681 39.4145186,6.82705226 C39.0656139,6.84250908 39.0547591,6.83941772 39.1974224,6.75440521 C39.2423923,6.72658294 39.2951157,6.68330384 39.3137239,6.65857293 C39.338535,6.62456793 39.3773021,6.60447406 39.4765462,6.57201474 C39.6006012,6.53028133 39.6083546,6.52564428 39.6471218,6.4560886 C39.6843383,6.38498723 39.690541,6.38189586 39.760322,6.37725882 C39.8332043,6.37262177 39.8332043,6.37262177 39.7293082,6.27060676 C39.6703821,6.21496221 39.6238615,6.1562263 39.6238615,6.14076948 C39.6238615,6.12685834 39.6595273,6.05575698 39.7029465,5.98465561 C39.7479165,5.91200856 39.7789302,5.8486356 39.7727275,5.84245287 C39.7665247,5.83627014 39.6719328,5.82390468 39.5649353,5.81463059 C39.2749568,5.788354 39.2346389,5.81308491 39.1834662,6.04957425 C39.1741621,6.09285334 39.1586552,6.10367312 39.0609619,6.14231516 C38.9089945,6.20414244 38.777186,6.3015204 38.7632298,6.36489336 C38.727564,6.52718997 38.8500683,6.83168931 38.9927316,6.93370432 C39.0733674,6.99089455 39.0733674,6.99089455 38.975674,6.99553159 C38.9182986,6.99862296 38.8423149,6.98934886 38.7926929,6.97543773 C38.7043037,6.95070682 38.3631524,6.73121998 38.2158371,6.60601974 C38.1693165,6.56583201 38.1274479,6.53491838 38.1196945,6.53491838 C38.0995355,6.53491838 38.012697,6.3447995 38.0018422,6.27678949 C37.9909874,6.20723381 38.0297546,6.00784084 38.0747245,5.90891719 C38.1600123,5.71879831 38.3445442,5.51940534 38.5569884,5.38956806 C38.6453776,5.33701487 38.7306654,5.28137033 38.747723,5.26745919 C38.8004463,5.22263441 39.3369843,4.93050053 39.3757515,4.9243178 C39.412968,4.91968075 39.4145186,4.92277212 39.4098666,4.98459939 C39.4021131,5.07579463 39.4269241,5.07115758 39.5339216,4.96141416 C39.6192094,4.87485598 39.8021906,4.573448 39.9479552,4.28285979 C39.9851717,4.21021274 40.0440978,4.12365455 40.0875171,4.07882978 C40.1929638,3.97063204 40.1991666,3.97526909 40.1898625,4.13447433 C40.127835,5.15307872 40.127835,5.14535031 40.2456872,5.44675829 C40.351134,5.72188968 40.3542354,5.73116377 40.330975,5.77598854 C40.3170189,5.80071946 40.2984106,5.82699605 40.2891065,5.83317878 L40.2567072,5.86954524 C40.2097199,5.9511229 40.1991666,6.1260855 40.2456872,6.22269062 C40.3464819,6.42672064 40.6535181,6.42672064 40.7543128,6.22269062 C40.8101375,6.10676448 40.7837758,5.87800355 40.7108935,5.83317878 L40.6990049,5.82109956 C40.6897008,5.80965006 40.6783291,5.79247582 40.669025,5.77598854 C40.6457646,5.73116377 40.648866,5.72188968 40.7543128,5.44675829 C40.872165,5.14535031 40.872165,5.15307872 40.8101375,4.13447433 C40.8054855,4.04637046 40.8085868,4 40.8194417,4 Z M40.3843879,4 C40.395237,4 40.4530987,4.21301813 40.5941365,4.76966406 C40.6538064,5.0028956 40.6538064,5.0028956 40.5941365,5.18948082 C40.5597811,5.2921027 40.5272339,5.40094408 40.5200012,5.43048674 C40.5145767,5.4600294 40.5037276,5.49734645 40.4983031,5.51445009 C40.4910704,5.53466349 40.4964949,5.53932812 40.5109603,5.53155374 C40.5326585,5.5206696 40.5236176,5.64195 40.5037276,5.65905364 C40.4946867,5.66682803 40.3663061,5.66993778 40.3572652,5.6621634 C40.3536489,5.65749877 40.3192935,5.49112694 40.2795136,5.29054782 C40.2108029,4.92515175 40.2108029,4.92515175 40.2433501,4.78521283 C40.2614318,4.70746899 40.2975954,4.50067036 40.3247181,4.32185952 C40.3518407,4.14460355 40.3789634,4 40.3843879,4 Z" id="Combined-Shape-Copy" fill="url(#linearGradient-2)" fill-rule="nonzero"></path>
            <polygon id="Rectangle-Copy" fill="url(#linearGradient-1)" transform="translate(180, 6) scale(-1, 1) translate(-180, -6)" points="154 -2.33146835e-15 203 -1.65423231e-14 206 12 157.327283 12"></polygon>
            <text id="#2-1600-45W-34L-65%" font-family="Sen-Regular, Sen" font-size="2.5" font-weight="normal">
                <tspan x="173.353516" y="4" fill="#FFFFFF">#2  1600 </tspan>
                <tspan x="184.144531" y="4" fill="#00C914">45W</tspan>
                <tspan x="189.134766" y="4" fill="#FFFFFF">  </tspan>
                <tspan x="190.599609" y="4" fill="#A70000">34L</tspan>
                <tspan x="194.837891" y="4" fill="#FFFFFF">  65%</tspan>
            </text>
            <text id="Opponent" font-family="Sen-Regular, Sen" font-size="3" font-weight="normal" fill="#FFFFFF">
                <tspan x="186.802734" y="9">Opponent </tspan>
            </text>
            <path d="M163.141175,4.00827636 C163.008214,4.01484233 163.008214,4.01484233 163.001648,4.09527549 C162.996723,4.16585969 163.001648,4.17735014 163.032836,4.19212358 C163.118194,4.23151941 163.121477,4.25450032 163.085364,4.62876072 C163.068949,4.81753242 163.050892,4.98168172 163.047609,4.99153068 C163.036119,5.01943606 163.2134,5.70722164 163.249513,5.77780584 C163.269211,5.81720167 163.362776,5.91404976 163.485888,6.0240298 C163.599151,6.12251938 163.684509,6.20623552 163.676301,6.20951851 C163.650037,6.21936747 163.439926,6.14385879 163.405455,6.11102893 C163.346361,6.05850115 163.134609,6.01253934 163.111628,6.04865219 C163.085364,6.09133101 163.126401,6.15042476 163.218325,6.19638656 C163.315173,6.24563135 163.315173,6.24563135 163.48753,6.54930756 C163.668094,6.86611572 163.697641,6.95639783 163.633622,6.97281276 C163.617208,6.97773724 163.551548,6.99415217 163.485888,7.00892561 C163.362776,7.03847248 163.362776,7.03683099 163.341437,7.14681102 C163.331588,7.19605581 163.333229,7.20098029 163.357852,7.19113134 C163.374267,7.18620686 163.505586,7.18948984 163.650037,7.1993388 C163.912676,7.21903672 163.912676,7.21903672 164.387068,7.48003411 C164.695668,7.64910789 164.879516,7.73939001 164.910704,7.73939001 C164.953383,7.73939001 164.971439,7.75744643 165.083061,7.93144469 C165.152003,8.03814174 165.242286,8.16946118 165.284964,8.22363045 C165.327643,8.27779972 165.39002,8.36479885 165.42285,8.41568513 C165.457321,8.46821291 165.491793,8.51089173 165.5,8.51089173 C165.508207,8.51089173 165.542679,8.46821291 165.57715,8.41568513 C165.60998,8.36479885 165.672357,8.27779972 165.715036,8.22363045 C165.757714,8.16946118 165.847997,8.03814174 165.916939,7.93144469 C166.028561,7.75744643 166.046617,7.73939001 166.089296,7.73939001 C166.120484,7.73939001 166.304332,7.64910789 166.612932,7.48003411 C167.087324,7.21903672 167.087324,7.21903672 167.349963,7.1993388 C167.494414,7.18948984 167.625733,7.18620686 167.642148,7.19113134 C167.666771,7.20098029 167.668412,7.19605581 167.658563,7.14681102 C167.637224,7.03683099 167.637224,7.03847248 167.514112,7.00892561 C167.448452,6.99415217 167.382792,6.97773724 167.368019,6.97281276 C167.302359,6.95639783 167.331906,6.86611572 167.51247,6.54930756 C167.684827,6.24563135 167.684827,6.24563135 167.781675,6.19638656 C167.873599,6.15042476 167.914636,6.09133101 167.888372,6.04865219 C167.865391,6.01253934 167.653639,6.05850115 167.594545,6.11102893 C167.560074,6.14385879 167.349963,6.21936747 167.323699,6.20951851 C167.315491,6.20623552 167.400849,6.12251938 167.514112,6.0240298 C167.637224,5.91404976 167.730789,5.81720167 167.750487,5.77780584 C167.7866,5.70722164 167.963881,5.01943606 167.952391,4.99153068 C167.949108,4.98168172 167.931051,4.81753242 167.914636,4.62876072 C167.878523,4.25450032 167.881806,4.23151941 167.967164,4.19212358 C167.998352,4.17735014 168.003277,4.16585969 167.998352,4.09691698 C167.991786,4.01648383 167.991786,4.01648383 167.834203,4.00991785 C167.574847,3.9984274 167.542017,4.02140831 167.001966,4.57787444 C166.759025,4.82738138 166.553839,5.03092652 166.54399,5.03092652 C166.519367,5.03092652 166.315822,5.40026245 166.299407,5.47248814 C166.2912,5.51516696 166.30269,5.58739265 166.34701,5.7630324 C166.381482,5.89599334 166.402821,6.01253934 166.396255,6.03552025 C166.386406,6.07327459 166.048259,6.45081798 166.021995,6.45081798 C166.000655,6.45081798 165.516415,6.98430321 165.516415,7.0105671 C165.516415,7.02369905 165.509849,7.03354801 165.5,7.03354801 C165.491793,7.03354801 165.483585,7.02369905 165.483585,7.0105671 C165.483585,6.97937874 164.99442,6.44917649 164.973081,6.45574246 C164.963232,6.45738395 164.959949,6.45245947 164.966515,6.44261052 C164.973081,6.43276156 164.971439,6.42783708 164.963232,6.42947857 C164.941892,6.43768604 164.613594,6.07819907 164.602103,6.03552025 C164.597179,6.01418084 164.618518,5.89599334 164.65299,5.7630324 C164.69731,5.58739265 164.7088,5.51516696 164.700593,5.47248814 C164.682536,5.39369647 164.498689,5.06375638 164.45601,5.03749249 C164.437954,5.02436054 164.227843,4.81424944 163.989826,4.56966698 C163.59751,4.16585969 163.546623,4.11825639 163.435002,4.06080414 C163.366059,4.02633278 163.303682,3.9984274 163.293833,4.0000689 C163.283984,4.00171039 163.215042,4.00663487 163.141175,4.00827636 Z M165.257059,5.57097772 C165.1044,5.57261921 165.127381,5.55784578 164.974722,5.76795688 C164.920553,5.84346556 164.876233,5.92389872 164.876233,5.94359664 C164.876233,5.99284143 164.938609,6.01089785 165.009194,5.98299247 C165.097834,5.94523813 165.079778,5.97970948 164.984571,6.02731278 C164.871308,6.08148205 164.868025,6.10774594 164.971439,6.12251938 C165.01576,6.12744386 165.07157,6.14550028 165.096193,6.16191521 C165.138872,6.19146208 165.138872,6.19146208 165.106042,6.2341409 C165.086344,6.2587633 165.073212,6.29651764 165.076495,6.31785705 C165.083061,6.36874333 165.458963,6.77090912 165.5,6.77090912 C165.536113,6.77090912 165.923505,6.36710184 165.936637,6.31621555 C165.943203,6.29159316 165.931713,6.26040479 165.900524,6.22100896 C165.816808,6.10938743 165.908732,6.00925636 166.095862,6.00761487 C166.19271,6.00761487 166.19271,6.00761487 166.18122,5.94195514 C166.163163,5.82869213 166.138541,5.79422077 166.069598,5.78929629 C166.013787,5.78437181 165.997372,5.77123987 165.913656,5.66290133 C165.820091,5.54143085 165.820091,5.54143085 165.655942,5.54307234 C165.56566,5.54307234 165.470453,5.54963831 165.442548,5.55620428 C165.416284,5.56277026 165.332568,5.56933623 165.257059,5.57097772 Z M164.909063,8.16289521 C164.945175,8.17602715 164.922194,8.24332836 164.856535,8.30898809 C164.787592,8.37957229 164.787592,8.37957229 164.792517,8.51909919 C164.795799,8.6340037 164.805648,8.681607 164.846686,8.77845509 C164.932043,8.98035873 165.048589,9.0591504 165.007552,8.88679363 C164.991137,8.81456794 164.991137,8.81456794 165.124098,8.68981447 C165.252135,8.57162697 165.258701,8.5634195 165.24721,8.50925023 C165.229154,8.40911916 165.074853,8.11529191 164.986213,8.00859486 C164.895931,7.90025632 164.868025,7.88384139 164.85161,7.93472768 C164.84012,7.97084052 164.886082,8.15632923 164.909063,8.16289521 Z M165.75279,8.50925023 C165.741299,8.5634195 165.747865,8.57162697 165.875902,8.68981447 C166.008863,8.81456794 166.008863,8.81456794 165.992448,8.88679363 C165.951411,9.0591504 166.067957,8.98035873 166.153314,8.77845509 C166.194352,8.681607 166.204201,8.6340037 166.207483,8.51909919 C166.212408,8.37957229 166.212408,8.37957229 166.143465,8.30898809 C166.077806,8.24332836 166.054825,8.17602715 166.090937,8.16289521 C166.113918,8.15632923 166.15988,7.97084052 166.14839,7.93472768 C166.131975,7.88384139 166.104069,7.90025632 166.013787,8.00859486 C165.925147,8.11529191 165.770846,8.40911916 165.75279,8.50925023 Z" id="Vanguard-Copy" fill="url(#linearGradient-3)" fill-rule="nonzero"></path>
        </g>
    </g>
</svg>