<?xml version="1.0" encoding="UTF-8"?>
<svg width="44px" height="25px" viewBox="0 0 44 25" version="1.1" xmlns="http://www.w3.org/2000/svg" xmlns:xlink="http://www.w3.org/1999/xlink">
    <title>Group 8 Copy 2</title>
    <defs>
        <linearGradient x1="50%" y1="0%" x2="50%" y2="100%" id="linearGradient-1">
            <stop stop-color="#A99C7E" offset="0%"></stop>
            <stop stop-color="#655A3C" offset="100%"></stop>
        </linearGradient>
        <linearGradient x1="50%" y1="0%" x2="50%" y2="99.7650787%" id="linearGradient-2">
            <stop stop-color="#505954" offset="0%"></stop>
            <stop stop-color="#21090B" offset="100%"></stop>
        </linearGradient>
    </defs>
    <g id="overlay" stroke="none" stroke-width="1" fill="none" fill-rule="evenodd">
        <g id="Group-8-Copy">
            <rect id="Rectangle" fill-opacity="0.404092002" fill="#000000" x="0" y="0" width="44" height="25"></rect>
            <text id="Player" font-family="Sen-Regular, Sen" font-size="3" font-weight="normal" fill="#FFFFFF">
                <tspan x="23.0087891" y="6">Player </tspan>
            </text>
            <text id="#1-1600-45W-34L-65%" font-family="Sen-Regular, Sen" font-size="2.5" font-weight="normal">
                <tspan x="4.35351562" y="10" fill="#FFFFFF">#1  1600 </tspan>
                <tspan x="15.1445312" y="10" fill="#00C914">45W</tspan>
                <tspan x="20.1347656" y="10" fill="#FFFFFF">  </tspan>
                <tspan x="21.5996094" y="10" fill="#A70000">34L</tspan>
                <tspan x="25.8378906" y="10" fill="#FFFFFF">  65%</tspan>
            </text>
            <text id="#2-1600-45W-34L-65%" font-family="Sen-Regular, Sen" font-size="2.5" font-weight="normal">
                <tspan x="4.35351562" y="20" fill="#FFFFFF">#2  1600 </tspan>
                <tspan x="15.1445312" y="20" fill="#00C914">45W</tspan>
                <tspan x="20.1347656" y="20" fill="#FFFFFF">  </tspan>
                <tspan x="21.5996094" y="20" fill="#A70000">34L</tspan>
                <tspan x="25.8378906" y="20" fill="#FFFFFF">  65%</tspan>
            </text>
            <text id="Opponent" font-family="Sen-Regular, Sen" font-size="3" font-weight="normal" fill="#FFFFFF">
                <tspan x="17.8027344" y="16">Opponent </tspan>
            </text>
            <path d="M36.1411745,15.0082764 C36.0082136,15.0148423 36.0082136,15.0148423 36.0016476,15.0952755 C35.9967231,15.1658597 36.0016476,15.1773501 36.032836,15.1921236 C36.1181936,15.2315194 36.1214766,15.2545003 36.0853638,15.6287607 C36.0689488,15.8175324 36.0508924,15.9816817 36.0476094,15.9915307 C36.036119,16.0194361 36.2134002,16.7072216 36.2495131,16.7778058 C36.269211,16.8172017 36.3627761,16.9140498 36.4858881,17.0240298 C36.5991511,17.1225194 36.6845087,17.2062355 36.6763012,17.2095185 C36.6500374,17.2193675 36.4399263,17.1438588 36.4054549,17.1110289 C36.3463612,17.0585011 36.1346086,17.0125393 36.1116276,17.0486522 C36.0853638,17.091331 36.1264011,17.1504248 36.2183247,17.1963866 C36.3151728,17.2456314 36.3151728,17.2456314 36.4875296,17.5493076 C36.6680938,17.8661157 36.6976407,17.9563978 36.6336224,17.9728128 C36.6172075,17.9777372 36.5515478,17.9941522 36.4858881,18.0089256 C36.3627761,18.0384725 36.3627761,18.036831 36.3414367,18.146811 C36.3315877,18.1960558 36.3332292,18.2009803 36.3578516,18.1911313 C36.3742665,18.1862069 36.505586,18.1894898 36.6500374,18.1993388 C36.9126762,18.2190367 36.9126762,18.2190367 37.3870677,18.4800341 C37.6956684,18.6491079 37.8795156,18.73939 37.910704,18.73939 C37.9533828,18.73939 37.9714392,18.7574464 38.0830608,18.9314447 C38.1520035,19.0381417 38.2422856,19.1694612 38.2849644,19.2236304 C38.3276432,19.2777997 38.39002,19.3647988 38.4228498,19.4156851 C38.4573212,19.4682129 38.4917925,19.5108917 38.5,19.5108917 C38.5082075,19.5108917 38.5426788,19.4682129 38.5771502,19.4156851 C38.60998,19.3647988 38.6723568,19.2777997 38.7150356,19.2236304 C38.7577144,19.1694612 38.8479965,19.0381417 38.9169392,18.9314447 C39.0285608,18.7574464 39.0466172,18.73939 39.089296,18.73939 C39.1204844,18.73939 39.3043316,18.6491079 39.6129323,18.4800341 C40.0873238,18.2190367 40.0873238,18.2190367 40.3499626,18.1993388 C40.494414,18.1894898 40.6257335,18.1862069 40.6421484,18.1911313 C40.6667708,18.2009803 40.6684123,18.1960558 40.6585633,18.146811 C40.6372239,18.036831 40.6372239,18.0384725 40.5141119,18.0089256 C40.4484522,17.9941522 40.3827925,17.9777372 40.3680191,17.9728128 C40.3023593,17.9563978 40.3319062,17.8661157 40.5124704,17.5493076 C40.6848272,17.2456314 40.6848272,17.2456314 40.7816753,17.1963866 C40.8735989,17.1504248 40.9146362,17.091331 40.8883724,17.0486522 C40.8653914,17.0125393 40.6536388,17.0585011 40.5945451,17.1110289 C40.5600737,17.1438588 40.3499626,17.2193675 40.3236988,17.2095185 C40.3154913,17.2062355 40.4008489,17.1225194 40.5141119,17.0240298 C40.6372239,16.9140498 40.730789,16.8172017 40.7504869,16.7778058 C40.7865998,16.7072216 40.963881,16.0194361 40.9523906,15.9915307 C40.9491076,15.9816817 40.9310512,15.8175324 40.9146362,15.6287607 C40.8785234,15.2545003 40.8818064,15.2315194 40.967164,15.1921236 C40.9983524,15.1773501 41.0032769,15.1658597 40.9983524,15.096917 C40.9917864,15.0164838 40.9917864,15.0164838 40.8342031,15.0099179 C40.5748472,14.9984274 40.5420173,15.0214083 40.0019661,15.5778744 C39.7590251,15.8273814 39.5538385,16.0309265 39.5439896,16.0309265 C39.5193672,16.0309265 39.315822,16.4002624 39.2994071,16.4724881 C39.2911996,16.515167 39.3026901,16.5873927 39.3470104,16.7630324 C39.3814818,16.8959933 39.4028212,17.0125393 39.3962552,17.0355202 C39.3864062,17.0732746 39.0482587,17.450818 39.0219948,17.450818 C39.0006554,17.450818 38.5164149,17.9843032 38.5164149,18.0105671 C38.5164149,18.023699 38.509849,18.033548 38.5,18.033548 C38.4917925,18.033548 38.4835851,18.023699 38.4835851,18.0105671 C38.4835851,17.9793787 37.9944201,17.4491765 37.9730807,17.4557425 C37.9632318,17.457384 37.9599488,17.4524595 37.9665148,17.4426105 C37.9730807,17.4327616 37.9714392,17.4278371 37.9632318,17.4294786 C37.9418924,17.437686 37.6135938,17.0781991 37.6021033,17.0355202 C37.5971788,17.0141808 37.6185182,16.8959933 37.6529896,16.7630324 C37.6973099,16.5873927 37.7088004,16.515167 37.7005929,16.4724881 C37.6825365,16.3936965 37.4986893,16.0637564 37.4560104,16.0374925 C37.437954,16.0243605 37.2278429,15.8142494 36.9898264,15.569667 C36.5975096,15.1658597 36.5466233,15.1182564 36.4350018,15.0608041 C36.3660591,15.0263328 36.3036823,14.9984274 36.2938334,15.0000689 C36.2839844,15.0017104 36.2150417,15.0066349 36.1411745,15.0082764 Z M38.257059,16.5709777 C38.1044002,16.5726192 38.1273811,16.5578458 37.9747222,16.7679569 C37.920553,16.8434656 37.8762327,16.9238987 37.8762327,16.9435966 C37.8762327,16.9928414 37.9386094,17.0108979 38.0091936,16.9829925 C38.0978342,16.9452381 38.0797778,16.9797095 37.9845712,17.0273128 C37.8713082,17.0814821 37.8680252,17.1077459 37.9714392,17.1225194 C38.0157596,17.1274439 38.0715703,17.1455003 38.0961927,17.1619152 C38.1388715,17.1914621 38.1388715,17.1914621 38.1060417,17.2341409 C38.0863438,17.2587633 38.0732118,17.2965176 38.0764948,17.317857 C38.0830608,17.3687433 38.4589627,17.7709091 38.5,17.7709091 C38.5361128,17.7709091 38.9235052,17.3671018 38.9366371,17.3162156 C38.9432031,17.2915932 38.9317127,17.2604048 38.9005243,17.221009 C38.8168082,17.1093874 38.9087318,17.0092564 39.095862,17.0076149 C39.1927101,17.0076149 39.1927101,17.0076149 39.1812196,16.9419551 C39.1631632,16.8286921 39.1385408,16.7942208 39.0695981,16.7892963 C39.0137873,16.7843718 38.9973724,16.7712399 38.9136562,16.6629013 C38.8200911,16.5414308 38.8200911,16.5414308 38.6559418,16.5430723 C38.5656597,16.5430723 38.4704531,16.5496383 38.4425477,16.5562043 C38.4162839,16.5627703 38.3325677,16.5693362 38.257059,16.5709777 Z M37.9090625,19.1628952 C37.9451754,19.1760272 37.9221945,19.2433284 37.8565347,19.3089881 C37.787592,19.3795723 37.787592,19.3795723 37.7925165,19.5190992 C37.7957995,19.6340037 37.8056485,19.681607 37.8466858,19.7784551 C37.9320434,19.9803587 38.0485894,20.0591504 38.0075521,19.8867936 C37.9911372,19.8145679 37.9911372,19.8145679 38.1240981,19.6898145 C38.2521346,19.571627 38.2587005,19.5634195 38.2472101,19.5092502 C38.2291537,19.4091192 38.0748533,19.1152919 37.9862127,19.0085949 C37.8959306,18.9002563 37.8680252,18.8838414 37.8516103,18.9347277 C37.8401198,18.9708405 37.8860816,19.1563292 37.9090625,19.1628952 Z M38.7527899,19.5092502 C38.7412995,19.5634195 38.7478654,19.571627 38.8759019,19.6898145 C39.0088628,19.8145679 39.0088628,19.8145679 38.9924479,19.8867936 C38.9514106,20.0591504 39.0679566,19.9803587 39.1533142,19.7784551 C39.1943515,19.681607 39.2042005,19.6340037 39.2074835,19.5190992 C39.212408,19.3795723 39.212408,19.3795723 39.1434653,19.3089881 C39.0778055,19.2433284 39.0548246,19.1760272 39.0909375,19.1628952 C39.1139184,19.1563292 39.1598802,18.9708405 39.1483897,18.9347277 C39.1319748,18.8838414 39.1040694,18.9002563 39.0137873,19.0085949 C38.9251467,19.1152919 38.7708463,19.4091192 38.7527899,19.5092502 Z" id="Vanguard-Copy" fill="url(#linearGradient-1)" fill-rule="nonzero"></path>
            <path d="M38.8194417,5 C38.8566582,5 38.9931187,5.16538797 39.0520448,5.28285979 C39.3234151,5.82693984 39.607191,6.19635782 39.5901334,5.98459939 C39.5854814,5.92277212 39.587032,5.91968075 39.6242485,5.9243178 C39.6630157,5.93050053 40.1995537,6.22263441 40.252277,6.26745919 C40.2693346,6.28137033 40.3546224,6.33701487 40.4430116,6.38956806 C40.6554558,6.51940534 40.8399877,6.71879831 40.9252755,6.90891719 C40.9702454,7.00784084 41.0090126,7.20723381 40.9981578,7.27678949 C40.987303,7.3447995 40.9004645,7.53491838 40.8803055,7.53491838 C40.8725521,7.53491838 40.8306835,7.56583201 40.7841629,7.60601974 C40.6368476,7.73121998 40.2956963,7.95070682 40.2073071,7.97543773 C40.1576851,7.98934886 40.0817014,7.99862296 40.024326,7.99553159 C39.9266326,7.99089455 39.9266326,7.99089455 40.0072684,7.93370432 C40.1499317,7.83168931 40.272436,7.52718997 40.2367702,7.36489336 C40.222814,7.3015204 40.0910055,7.20414244 39.9390381,7.14231516 C39.8413448,7.10367312 39.8258379,7.09285334 39.8165338,7.04957425 C39.7653611,6.81308491 39.7250432,6.788354 39.4350647,6.81463059 C39.3280672,6.82390468 39.2334753,6.83627014 39.2272725,6.84245287 C39.2210698,6.8486356 39.2520835,6.91200856 39.2970535,6.98465561 C39.3404727,7.05575698 39.3761385,7.12685834 39.3761385,7.14076948 C39.3761385,7.1562263 39.3296179,7.21496221 39.2722424,7.27060676 C39.1667957,7.37262177 39.1667957,7.37262177 39.239678,7.37725882 C39.309459,7.38189586 39.3156617,7.38498723 39.3528782,7.4560886 C39.3916454,7.52564428 39.3993988,7.53028133 39.5234538,7.57201474 C39.6226979,7.60447406 39.661465,7.62456793 39.6862761,7.65857293 C39.7048843,7.68330384 39.7576077,7.72658294 39.8025776,7.75440521 C39.9452409,7.83941772 39.9343861,7.84250908 39.5854814,7.82705226 C39.2660397,7.81468681 39.2489821,7.81777817 39.2210698,7.92288454 C39.1993601,8.00171432 39.2164177,8.02489955 39.3296179,8.06817864 C39.3745878,8.08518114 39.4180071,8.11300342 39.4257605,8.13000592 C39.4350647,8.14700842 39.4691798,8.19801593 39.5032949,8.2428407 C39.53741,8.28921116 39.5606704,8.32939889 39.557569,8.33403594 C39.5467142,8.34331003 39.2551849,8.31239639 39.1140723,8.2861198 C39.0039735,8.26448025 39.0039735,8.26448025 39.0039735,8.43295958 C39.0039735,8.59525618 39.0055242,8.60143891 39.0489434,8.65090073 C39.0923627,8.70190824 39.0923627,8.70190824 39.0861599,9.08060031 C39.0830586,9.28926737 39.0768558,9.47474921 39.0737544,9.49329739 C39.0691024,9.51339125 39.0101762,9.56285308 38.9109322,9.6293174 C38.7264004,9.75142627 38.6163016,9.84725855 38.5511727,9.94309083 C38.5015507,10.0141922 38.5015507,10.0141922 38.4705369,9.96782174 C38.4038574,9.87508083 38.2472379,9.73287809 38.0921691,9.63086308 C37.9898238,9.56285308 37.9308976,9.51493694 37.9262456,9.49329739 C37.9231442,9.47474921 37.9169414,9.28926737 37.9138401,9.08060031 C37.9076373,8.70190824 37.9076373,8.70190824 37.9510566,8.65090073 C37.9944758,8.60143891 37.9960265,8.59525618 37.9960265,8.43295958 C37.9960265,8.26448025 37.9960265,8.26448025 37.8859277,8.2861198 C37.7448151,8.31239639 37.4532858,8.34331003 37.442431,8.33403594 C37.4393296,8.32939889 37.46259,8.28921116 37.4967051,8.2428407 C37.5308202,8.19801593 37.5649353,8.14700842 37.5742395,8.13000592 C37.5819929,8.11300342 37.6254122,8.08518114 37.6703821,8.06817864 C37.7835823,8.02489955 37.8006399,8.00171432 37.7789302,7.92288454 C37.7510179,7.81777817 37.7339603,7.81468681 37.4145186,7.82705226 C37.0656139,7.84250908 37.0547591,7.83941772 37.1974224,7.75440521 C37.2423923,7.72658294 37.2951157,7.68330384 37.3137239,7.65857293 C37.338535,7.62456793 37.3773021,7.60447406 37.4765462,7.57201474 C37.6006012,7.53028133 37.6083546,7.52564428 37.6471218,7.4560886 C37.6843383,7.38498723 37.690541,7.38189586 37.760322,7.37725882 C37.8332043,7.37262177 37.8332043,7.37262177 37.7293082,7.27060676 C37.6703821,7.21496221 37.6238615,7.1562263 37.6238615,7.14076948 C37.6238615,7.12685834 37.6595273,7.05575698 37.7029465,6.98465561 C37.7479165,6.91200856 37.7789302,6.8486356 37.7727275,6.84245287 C37.7665247,6.83627014 37.6719328,6.82390468 37.5649353,6.81463059 C37.2749568,6.788354 37.2346389,6.81308491 37.1834662,7.04957425 C37.1741621,7.09285334 37.1586552,7.10367312 37.0609619,7.14231516 C36.9089945,7.20414244 36.777186,7.3015204 36.7632298,7.36489336 C36.727564,7.52718997 36.8500683,7.83168931 36.9927316,7.93370432 C37.0733674,7.99089455 37.0733674,7.99089455 36.975674,7.99553159 C36.9182986,7.99862296 36.8423149,7.98934886 36.7926929,7.97543773 C36.7043037,7.95070682 36.3631524,7.73121998 36.2158371,7.60601974 C36.1693165,7.56583201 36.1274479,7.53491838 36.1196945,7.53491838 C36.0995355,7.53491838 36.012697,7.3447995 36.0018422,7.27678949 C35.9909874,7.20723381 36.0297546,7.00784084 36.0747245,6.90891719 C36.1600123,6.71879831 36.3445442,6.51940534 36.5569884,6.38956806 C36.6453776,6.33701487 36.7306654,6.28137033 36.747723,6.26745919 C36.8004463,6.22263441 37.3369843,5.93050053 37.3757515,5.9243178 C37.412968,5.91968075 37.4145186,5.92277212 37.4098666,5.98459939 C37.4021131,6.07579463 37.4269241,6.07115758 37.5339216,5.96141416 C37.6192094,5.87485598 37.8021906,5.573448 37.9479552,5.28285979 C37.9851717,5.21021274 38.0440978,5.12365455 38.0875171,5.07882978 C38.1929638,4.97063204 38.1991666,4.97526909 38.1898625,5.13447433 C38.127835,6.15307872 38.127835,6.14535031 38.2456872,6.44675829 C38.351134,6.72188968 38.3542354,6.73116377 38.330975,6.77598854 C38.3170189,6.80071946 38.2984106,6.82699605 38.2891065,6.83317878 L38.2567072,6.86954524 C38.2097199,6.9511229 38.1991666,7.1260855 38.2456872,7.22269062 C38.3464819,7.42672064 38.6535181,7.42672064 38.7543128,7.22269062 C38.8101375,7.10676448 38.7837758,6.87800355 38.7108935,6.83317878 L38.6990049,6.82109956 C38.6897008,6.80965006 38.6783291,6.79247582 38.669025,6.77598854 C38.6457646,6.73116377 38.648866,6.72188968 38.7543128,6.44675829 C38.872165,6.14535031 38.872165,6.15307872 38.8101375,5.13447433 C38.8054855,5.04637046 38.8085868,5 38.8194417,5 Z M38.3843879,5 C38.395237,5 38.4530987,5.21301813 38.5941365,5.76966406 C38.6538064,6.0028956 38.6538064,6.0028956 38.5941365,6.18948082 C38.5597811,6.2921027 38.5272339,6.40094408 38.5200012,6.43048674 C38.5145767,6.4600294 38.5037276,6.49734645 38.4983031,6.51445009 C38.4910704,6.53466349 38.4964949,6.53932812 38.5109603,6.53155374 C38.5326585,6.5206696 38.5236176,6.64195 38.5037276,6.65905364 C38.4946867,6.66682803 38.3663061,6.66993778 38.3572652,6.6621634 C38.3536489,6.65749877 38.3192935,6.49112694 38.2795136,6.29054782 C38.2108029,5.92515175 38.2108029,5.92515175 38.2433501,5.78521283 C38.2614318,5.70746899 38.2975954,5.50067036 38.3247181,5.32185952 C38.3518407,5.14460355 38.3789634,5 38.3843879,5 Z" id="Combined-Shape-Copy" fill="url(#linearGradient-2)" fill-rule="nonzero"></path>
        </g>
    </g>
</svg>