<?xml version="1.0" encoding="UTF-8"?>
<svg width="91px" height="12px" viewBox="0 0 91 12" version="1.1" xmlns="http://www.w3.org/2000/svg" xmlns:xlink="http://www.w3.org/1999/xlink">
    <title>Group 7</title>
    <defs>
        <linearGradient x1="50%" y1="0%" x2="50%" y2="100%" id="linearGradient-1">
            <stop stop-color="#A99C7E" offset="0%"></stop>
            <stop stop-color="#655A3C" offset="100%"></stop>
        </linearGradient>
        <linearGradient x1="50%" y1="0%" x2="50%" y2="99.7650787%" id="linearGradient-2">
            <stop stop-color="#505954" offset="0%"></stop>
            <stop stop-color="#21090B" offset="100%"></stop>
        </linearGradient>
    </defs>
    <g id="overlay" stroke="none" stroke-width="1" fill="none" fill-rule="evenodd">
        <g id="Group-7">
            <rect id="Rectangle" fill-opacity="0.504916958" fill="#000000" x="0" y="0" width="91" height="12"></rect>
            <text id="Player" font-family="Sen-Regular, Sen" font-size="3" font-weight="normal" fill="#FFFFFF">
                <tspan x="12" y="5">Player </tspan>
            </text>
            <text id="#1-1600-45W-34L-65%" font-family="Sen-Regular, Sen" font-size="2.5" font-weight="normal">
                <tspan x="12" y="9" fill="#FFFFFF">#1  1600 </tspan>
                <tspan x="22.7910156" y="9" fill="#00C914">45W</tspan>
                <tspan x="27.78125" y="9" fill="#FFFFFF">  </tspan>
                <tspan x="29.2460938" y="9" fill="#A70000">34L</tspan>
                <tspan x="33.484375" y="9" fill="#FFFFFF">  65%</tspan>
            </text>
            <text id="#2-1600-45W-34L-65%" font-family="Sen-Regular, Sen" font-size="2.5" font-weight="normal">
                <tspan x="49.3535156" y="9" fill="#FFFFFF">#2  1600 </tspan>
                <tspan x="60.1445312" y="9" fill="#00C914">45W</tspan>
                <tspan x="65.1347656" y="9" fill="#FFFFFF">  </tspan>
                <tspan x="66.5996094" y="9" fill="#A70000">34L</tspan>
                <tspan x="70.8378906" y="9" fill="#FFFFFF">  65%</tspan>
            </text>
            <text id="Opponent" font-family="Sen-Regular, Sen" font-size="3" font-weight="normal" fill="#FFFFFF">
                <tspan x="62.8027344" y="5">Opponent </tspan>
            </text>
            <path d="M81.1411745,4.00827636 C81.0082136,4.01484233 81.0082136,4.01484233 81.0016476,4.09527549 C80.9967231,4.16585969 81.0016476,4.17735014 81.032836,4.19212358 C81.1181936,4.23151941 81.1214766,4.25450032 81.0853638,4.62876072 C81.0689488,4.81753242 81.0508924,4.98168172 81.0476094,4.99153068 C81.036119,5.01943606 81.2134002,5.70722164 81.2495131,5.77780584 C81.269211,5.81720167 81.3627761,5.91404976 81.4858881,6.0240298 C81.5991511,6.12251938 81.6845087,6.20623552 81.6763012,6.20951851 C81.6500374,6.21936747 81.4399263,6.14385879 81.4054549,6.11102893 C81.3463612,6.05850115 81.1346086,6.01253934 81.1116276,6.04865219 C81.0853638,6.09133101 81.1264011,6.15042476 81.2183247,6.19638656 C81.3151728,6.24563135 81.3151728,6.24563135 81.4875296,6.54930756 C81.6680938,6.86611572 81.6976407,6.95639783 81.6336224,6.97281276 C81.6172075,6.97773724 81.5515478,6.99415217 81.4858881,7.00892561 C81.3627761,7.03847248 81.3627761,7.03683099 81.3414367,7.14681102 C81.3315877,7.19605581 81.3332292,7.20098029 81.3578516,7.19113134 C81.3742665,7.18620686 81.505586,7.18948984 81.6500374,7.1993388 C81.9126762,7.21903672 81.9126762,7.21903672 82.3870677,7.48003411 C82.6956684,7.64910789 82.8795156,7.73939001 82.910704,7.73939001 C82.9533828,7.73939001 82.9714392,7.75744643 83.0830608,7.93144469 C83.1520035,8.03814174 83.2422856,8.16946118 83.2849644,8.22363045 C83.3276432,8.27779972 83.39002,8.36479885 83.4228498,8.41568513 C83.4573212,8.46821291 83.4917925,8.51089173 83.5,8.51089173 C83.5082075,8.51089173 83.5426788,8.46821291 83.5771502,8.41568513 C83.60998,8.36479885 83.6723568,8.27779972 83.7150356,8.22363045 C83.7577144,8.16946118 83.8479965,8.03814174 83.9169392,7.93144469 C84.0285608,7.75744643 84.0466172,7.73939001 84.089296,7.73939001 C84.1204844,7.73939001 84.3043316,7.64910789 84.6129323,7.48003411 C85.0873238,7.21903672 85.0873238,7.21903672 85.3499626,7.1993388 C85.494414,7.18948984 85.6257335,7.18620686 85.6421484,7.19113134 C85.6667708,7.20098029 85.6684123,7.19605581 85.6585633,7.14681102 C85.6372239,7.03683099 85.6372239,7.03847248 85.5141119,7.00892561 C85.4484522,6.99415217 85.3827925,6.97773724 85.3680191,6.97281276 C85.3023593,6.95639783 85.3319062,6.86611572 85.5124704,6.54930756 C85.6848272,6.24563135 85.6848272,6.24563135 85.7816753,6.19638656 C85.8735989,6.15042476 85.9146362,6.09133101 85.8883724,6.04865219 C85.8653914,6.01253934 85.6536388,6.05850115 85.5945451,6.11102893 C85.5600737,6.14385879 85.3499626,6.21936747 85.3236988,6.20951851 C85.3154913,6.20623552 85.4008489,6.12251938 85.5141119,6.0240298 C85.6372239,5.91404976 85.730789,5.81720167 85.7504869,5.77780584 C85.7865998,5.70722164 85.963881,5.01943606 85.9523906,4.99153068 C85.9491076,4.98168172 85.9310512,4.81753242 85.9146362,4.62876072 C85.8785234,4.25450032 85.8818064,4.23151941 85.967164,4.19212358 C85.9983524,4.17735014 86.0032769,4.16585969 85.9983524,4.09691698 C85.9917864,4.01648383 85.9917864,4.01648383 85.8342031,4.00991785 C85.5748472,3.9984274 85.5420173,4.02140831 85.0019661,4.57787444 C84.7590251,4.82738138 84.5538385,5.03092652 84.5439896,5.03092652 C84.5193672,5.03092652 84.315822,5.40026245 84.2994071,5.47248814 C84.2911996,5.51516696 84.3026901,5.58739265 84.3470104,5.7630324 C84.3814818,5.89599334 84.4028212,6.01253934 84.3962552,6.03552025 C84.3864062,6.07327459 84.0482587,6.45081798 84.0219948,6.45081798 C84.0006554,6.45081798 83.5164149,6.98430321 83.5164149,7.0105671 C83.5164149,7.02369905 83.509849,7.03354801 83.5,7.03354801 C83.4917925,7.03354801 83.4835851,7.02369905 83.4835851,7.0105671 C83.4835851,6.97937874 82.9944201,6.44917649 82.9730807,6.45574246 C82.9632318,6.45738395 82.9599488,6.45245947 82.9665148,6.44261052 C82.9730807,6.43276156 82.9714392,6.42783708 82.9632318,6.42947857 C82.9418924,6.43768604 82.6135938,6.07819907 82.6021033,6.03552025 C82.5971788,6.01418084 82.6185182,5.89599334 82.6529896,5.7630324 C82.6973099,5.58739265 82.7088004,5.51516696 82.7005929,5.47248814 C82.6825365,5.39369647 82.4986893,5.06375638 82.4560104,5.03749249 C82.437954,5.02436054 82.2278429,4.81424944 81.9898264,4.56966698 C81.5975096,4.16585969 81.5466233,4.11825639 81.4350018,4.06080414 C81.3660591,4.02633278 81.3036823,3.9984274 81.2938334,4.0000689 C81.2839844,4.00171039 81.2150417,4.00663487 81.1411745,4.00827636 Z M83.257059,5.57097772 C83.1044002,5.57261921 83.1273811,5.55784578 82.9747222,5.76795688 C82.920553,5.84346556 82.8762327,5.92389872 82.8762327,5.94359664 C82.8762327,5.99284143 82.9386094,6.01089785 83.0091936,5.98299247 C83.0978342,5.94523813 83.0797778,5.97970948 82.9845712,6.02731278 C82.8713082,6.08148205 82.8680252,6.10774594 82.9714392,6.12251938 C83.0157596,6.12744386 83.0715703,6.14550028 83.0961927,6.16191521 C83.1388715,6.19146208 83.1388715,6.19146208 83.1060417,6.2341409 C83.0863438,6.2587633 83.0732118,6.29651764 83.0764948,6.31785705 C83.0830608,6.36874333 83.4589627,6.77090912 83.5,6.77090912 C83.5361128,6.77090912 83.9235052,6.36710184 83.9366371,6.31621555 C83.9432031,6.29159316 83.9317127,6.26040479 83.9005243,6.22100896 C83.8168082,6.10938743 83.9087318,6.00925636 84.095862,6.00761487 C84.1927101,6.00761487 84.1927101,6.00761487 84.1812196,5.94195514 C84.1631632,5.82869213 84.1385408,5.79422077 84.0695981,5.78929629 C84.0137873,5.78437181 83.9973724,5.77123987 83.9136562,5.66290133 C83.8200911,5.54143085 83.8200911,5.54143085 83.6559418,5.54307234 C83.5656597,5.54307234 83.4704531,5.54963831 83.4425477,5.55620428 C83.4162839,5.56277026 83.3325677,5.56933623 83.257059,5.57097772 Z M82.9090625,8.16289521 C82.9451754,8.17602715 82.9221945,8.24332836 82.8565347,8.30898809 C82.787592,8.37957229 82.787592,8.37957229 82.7925165,8.51909919 C82.7957995,8.6340037 82.8056485,8.681607 82.8466858,8.77845509 C82.9320434,8.98035873 83.0485894,9.0591504 83.0075521,8.88679363 C82.9911372,8.81456794 82.9911372,8.81456794 83.1240981,8.68981447 C83.2521346,8.57162697 83.2587005,8.5634195 83.2472101,8.50925023 C83.2291537,8.40911916 83.0748533,8.11529191 82.9862127,8.00859486 C82.8959306,7.90025632 82.8680252,7.88384139 82.8516103,7.93472768 C82.8401198,7.97084052 82.8860816,8.15632923 82.9090625,8.16289521 Z M83.7527899,8.50925023 C83.7412995,8.5634195 83.7478654,8.57162697 83.8759019,8.68981447 C84.0088628,8.81456794 84.0088628,8.81456794 83.9924479,8.88679363 C83.9514106,9.0591504 84.0679566,8.98035873 84.1533142,8.77845509 C84.1943515,8.681607 84.2042005,8.6340037 84.2074835,8.51909919 C84.212408,8.37957229 84.212408,8.37957229 84.1434653,8.30898809 C84.0778055,8.24332836 84.0548246,8.17602715 84.0909375,8.16289521 C84.1139184,8.15632923 84.1598802,7.97084052 84.1483897,7.93472768 C84.1319748,7.88384139 84.1040694,7.90025632 84.0137873,8.00859486 C83.9251467,8.11529191 83.7708463,8.40911916 83.7527899,8.50925023 Z" id="Vanguard-Copy" fill="url(#linearGradient-1)" fill-rule="nonzero"></path>
            <path d="M5.81944166,4 C5.85665816,4 5.99311867,4.16538797 6.0520448,4.28285979 C6.32341514,4.82693984 6.60719098,5.19635782 6.59013342,4.98459939 C6.58548135,4.92277212 6.58703204,4.91968075 6.62424855,4.9243178 C6.66301574,4.93050053 7.19955366,5.22263441 7.25227704,5.26745919 C7.26933461,5.28137033 7.35462243,5.33701487 7.44301162,5.38956806 C7.65545583,5.51940534 7.83998766,5.71879831 7.92527548,5.90891719 C7.97024543,6.00784084 8.00901262,6.20723381 7.9981578,6.27678949 C7.98730299,6.3447995 7.90046448,6.53491838 7.88030554,6.53491838 C7.8725521,6.53491838 7.83068354,6.56583201 7.78416291,6.60601974 C7.63684758,6.73121998 7.2956963,6.95070682 7.2073071,6.97543773 C7.1576851,6.98934886 7.0817014,6.99862296 7.02432596,6.99553159 C6.92663264,6.99089455 6.92663264,6.99089455 7.00726839,6.93370432 C7.14993166,6.83168931 7.27243598,6.52718997 7.23677017,6.36489336 C7.22281398,6.3015204 7.09100553,6.20414244 6.93903814,6.14231516 C6.84134482,6.10367312 6.82583794,6.09285334 6.81653381,6.04957425 C6.76536112,5.81308491 6.72504324,5.788354 6.43506465,5.81463059 C6.3280672,5.82390468 6.23347526,5.83627014 6.22727251,5.84245287 C6.22106976,5.8486356 6.25208351,5.91200856 6.29705345,5.98465561 C6.34047271,6.05575698 6.37613852,6.12685834 6.37613852,6.14076948 C6.37613852,6.1562263 6.32961789,6.21496221 6.27224245,6.27060676 C6.16679569,6.37262177 6.16679569,6.37262177 6.23967801,6.37725882 C6.30945895,6.38189586 6.3156617,6.38498723 6.35287821,6.4560886 C6.3916454,6.52564428 6.39939884,6.53028133 6.52345385,6.57201474 C6.62269786,6.60447406 6.66146505,6.62456793 6.68627605,6.65857293 C6.7048843,6.68330384 6.75760768,6.72658294 6.80257763,6.75440521 C6.94524089,6.83941772 6.93438608,6.84250908 6.58548135,6.82705226 C6.2660397,6.81468681 6.24898213,6.81777817 6.22106976,6.92288454 C6.19936013,7.00171432 6.21641769,7.02489955 6.32961789,7.06817864 C6.37458783,7.08518114 6.41800709,7.11300342 6.42576053,7.13000592 C6.43506465,7.14700842 6.46917978,7.19801593 6.50329491,7.2428407 C6.53741004,7.28921116 6.56067035,7.32939889 6.55756898,7.33403594 C6.54671416,7.34331003 6.25518489,7.31239639 6.11407231,7.2861198 C6.00397349,7.26448025 6.00397349,7.26448025 6.00397349,7.43295958 C6.00397349,7.59525618 6.00552417,7.60143891 6.04894343,7.65090073 C6.09236268,7.70190824 6.09236268,7.70190824 6.08615993,8.08060031 C6.08305856,8.28926737 6.07685581,8.47474921 6.07375443,8.49329739 C6.06910237,8.51339125 6.01017624,8.56285308 5.91093223,8.6293174 C5.7264004,8.75142627 5.61630157,8.84725855 5.55117269,8.94309083 C5.50155069,9.0141922 5.50155069,9.0141922 5.47053693,8.96782174 C5.40385737,8.87508083 5.24723791,8.73287809 5.09216915,8.63086308 C4.98982376,8.56285308 4.93089763,8.51493694 4.92624557,8.49329739 C4.92314419,8.47474921 4.91694144,8.28926737 4.91384007,8.08060031 C4.90763732,7.70190824 4.90763732,7.70190824 4.95105657,7.65090073 C4.99447583,7.60143891 4.99602651,7.59525618 4.99602651,7.43295958 C4.99602651,7.26448025 4.99602651,7.26448025 4.88592769,7.2861198 C4.74481511,7.31239639 4.45328584,7.34331003 4.44243102,7.33403594 C4.43932965,7.32939889 4.46258996,7.28921116 4.49670509,7.2428407 C4.53082022,7.19801593 4.56493535,7.14700842 4.57423947,7.13000592 C4.58199291,7.11300342 4.62541217,7.08518114 4.67038211,7.06817864 C4.78358231,7.02489955 4.80063987,7.00171432 4.77893024,6.92288454 C4.75101787,6.81777817 4.7339603,6.81468681 4.41451865,6.82705226 C4.06561392,6.84250908 4.05475911,6.83941772 4.19742237,6.75440521 C4.24239232,6.72658294 4.2951157,6.68330384 4.31372395,6.65857293 C4.33853495,6.62456793 4.37730214,6.60447406 4.47654615,6.57201474 C4.60060116,6.53028133 4.6083546,6.52564428 4.64712179,6.4560886 C4.6843383,6.38498723 4.69054105,6.38189586 4.76032199,6.37725882 C4.83320431,6.37262177 4.83320431,6.37262177 4.72930824,6.27060676 C4.67038211,6.21496221 4.62386148,6.1562263 4.62386148,6.14076948 C4.62386148,6.12685834 4.65952729,6.05575698 4.70294655,5.98465561 C4.74791649,5.91200856 4.77893024,5.8486356 4.77272749,5.84245287 C4.76652474,5.83627014 4.6719328,5.82390468 4.56493535,5.81463059 C4.27495676,5.788354 4.23463888,5.81308491 4.18346619,6.04957425 C4.17416206,6.09285334 4.15865518,6.10367312 4.06096186,6.14231516 C3.90899447,6.20414244 3.77718602,6.3015204 3.76322983,6.36489336 C3.72756402,6.52718997 3.85006834,6.83168931 3.99273161,6.93370432 C4.07336736,6.99089455 4.07336736,6.99089455 3.97567404,6.99553159 C3.9182986,6.99862296 3.8423149,6.98934886 3.7926929,6.97543773 C3.7043037,6.95070682 3.36315242,6.73121998 3.21583709,6.60601974 C3.16931646,6.56583201 3.1274479,6.53491838 3.11969446,6.53491838 C3.09953552,6.53491838 3.01269701,6.3447995 3.0018422,6.27678949 C2.99098738,6.20723381 3.02975457,6.00784084 3.07472452,5.90891719 C3.16001234,5.71879831 3.34454417,5.51940534 3.55698838,5.38956806 C3.64537757,5.33701487 3.73066539,5.28137033 3.74772296,5.26745919 C3.80044634,5.22263441 4.33698426,4.93050053 4.37575145,4.9243178 C4.41296796,4.91968075 4.41451865,4.92277212 4.40986658,4.98459939 C4.40211314,5.07579463 4.42692415,5.07115758 4.53392159,4.96141416 C4.61920942,4.87485598 4.80219056,4.573448 4.9479552,4.28285979 C4.9851717,4.21021274 5.04409783,4.12365455 5.08751709,4.07882978 C5.19296385,3.97063204 5.1991666,3.97526909 5.18986247,4.13447433 C5.12783496,5.15307872 5.12783496,5.14535031 5.24568723,5.44675829 C5.35113399,5.72188968 5.35423536,5.73116377 5.33097505,5.77598854 C5.31701886,5.80071946 5.29841061,5.82699605 5.28910648,5.83317878 L5.25670716,5.86954524 C5.20971989,5.9511229 5.1991666,6.1260855 5.24568723,6.22269062 C5.34648192,6.42672064 5.65351808,6.42672064 5.75431277,6.22269062 C5.81013753,6.10676448 5.78377584,5.87800355 5.71089352,5.83317878 L5.69900491,5.82109956 C5.68970079,5.80965006 5.67832908,5.79247582 5.66902495,5.77598854 C5.64576464,5.73116377 5.64886601,5.72188968 5.75431277,5.44675829 C5.87216504,5.14535031 5.87216504,5.15307872 5.81013753,4.13447433 C5.80548547,4.04637046 5.80858684,4 5.81944166,4 Z M5.38438791,4 C5.39523697,4 5.45309865,4.21301813 5.5941365,4.76966406 C5.65380635,5.0028956 5.65380635,5.0028956 5.5941365,5.18948082 C5.55978112,5.2921027 5.52723393,5.40094408 5.52000122,5.43048674 C5.51457669,5.4600294 5.50372762,5.49734645 5.49830309,5.51445009 C5.49107038,5.53466349 5.49649491,5.53932812 5.51096033,5.53155374 C5.53265846,5.5206696 5.52361757,5.64195 5.50372762,5.65905364 C5.49468673,5.66682803 5.36630613,5.66993778 5.35726525,5.6621634 C5.35364889,5.65749877 5.31929352,5.49112694 5.27951361,5.29054782 C5.21080287,4.92515175 5.21080287,4.92515175 5.24335006,4.78521283 C5.26143184,4.70746899 5.29759539,4.50067036 5.32471805,4.32185952 C5.35184071,4.14460355 5.37896338,4 5.38438791,4 Z" id="Combined-Shape-Copy" fill="url(#linearGradient-2)" fill-rule="nonzero"></path>
        </g>
    </g>
</svg>